<svg xmlns="http://www.w3.org/2000/svg" viewBox="0 0 2796 3180" width="466" height="530">
<g transform="translate(0.000000,3180.000000) scale(0.100000,-0.100000)">
<path fill="#d98a5c" fill-rule="evenodd" d="M14335 30940 c-29 -30 -29 -30 -210 -30 -181 0 -181 0 -210 -30 -28
-29 -32 -30 -120 -30 -88 0 -92 -1 -120 -30 -26 -27 -35 -30 -90 -30 -55 0
-64 -3 -90 -30 -26 -27 -35 -30 -90 -30 -55 0 -64 -3 -90 -30 -26 -27 -35 -30
-92 -30 -57 0 -65 -3 -90 -30 -20 -23 -35 -30 -63 -30 -29 0 -41 -6 -58 -30
-18 -24 -30 -30 -60 -30 -31 0 -43 -6 -60 -30 -18 -24 -30 -30 -60 -30 -31 0
-43 -6 -60 -30 -18 -24 -30 -30 -60 -30 -31 0 -43 -6 -60 -30 -18 -24 -30 -30
-60 -30 -31 0 -43 -6 -60 -30 -18 -23 -30 -30 -58 -30 -30 0 -43 -9 -91 -60
-49 -52 -62 -60 -93 -60 -29 0 -41 -6 -58 -30 -18 -23 -30 -30 -58 -30 -30 0
-43 -9 -91 -60 -47 -50 -62 -60 -89 -60 -29 0 -45 -13 -120 -90 -75 -77 -91
-90 -120 -90 -28 0 -47 -15 -150 -120 -102 -104 -122 -120 -150 -120 -28 0
-50 -18 -180 -150 -128 -130 -152 -150 -179 -150 -28 0 -65 -34 -330 -300
-264 -265 -303 -300 -330 -300 -28 0 -69 -38 -360 -330 -293 -294 -333 -330
-361 -330 -27 0 -54 -22 -210 -180 -178 -180 -178 -180 -539 -180 -361 0 -361
0 -390 -30 -29 -30 -29 -30 -240 -30 -211 0 -211 0 -240 -30 -29 -30 -29 -30
-210 -30 -181 0 -181 0 -210 -30 -29 -30 -29 -30 -180 -30 -151 0 -151 0 -180
-30 -29 -30 -29 -30 -150 -30 -121 0 -121 0 -150 -30 -28 -29 -32 -30 -120
-30 -88 0 -92 -1 -120 -30 -28 -29 -32 -30 -120 -30 -88 0 -92 -1 -120 -30
-26 -27 -35 -30 -90 -30 -55 0 -64 -3 -90 -30 -26 -27 -35 -30 -90 -30 -55 0
-64 -3 -90 -30 -26 -27 -35 -30 -90 -30 -55 0 -64 -3 -90 -30 -26 -27 -35 -30
-92 -30 -57 0 -65 -3 -90 -30 -20 -23 -35 -30 -63 -30 -29 0 -41 -6 -58 -30
-21 -28 -27 -30 -87 -30 -59 0 -67 -3 -92 -30 -20 -23 -35 -30 -63 -30 -29 0
-41 -6 -58 -30 -18 -24 -30 -30 -60 -30 -31 0 -43 -6 -60 -30 -18 -24 -30 -30
-60 -30 -31 0 -43 -6 -60 -30 -18 -24 -30 -30 -60 -30 -31 0 -43 -6 -60 -30
-18 -24 -30 -30 -60 -30 -31 0 -43 -6 -60 -30 -18 -23 -30 -30 -58 -30 -30 0
-43 -9 -91 -60 -49 -52 -62 -60 -93 -60 -29 0 -41 -6 -58 -30 -18 -23 -30 -30
-58 -30 -30 0 -43 -9 -91 -60 -47 -49 -62 -60 -89 -60 -28 0 -48 -16 -150
-120 -100 -102 -122 -120 -148 -120 -28 0 -77 -45 -439 -407 -363 -363 -407
-411 -407 -439 0 -26 -14 -45 -90 -118 -78 -75 -90 -91 -90 -120 0 -28 -10
-43 -60 -89 -51 -48 -60 -61 -60 -90 0 -30 -9 -43 -60 -90 -51 -48 -60 -61
-60 -91 0 -27 -6 -39 -30 -56 -24 -17 -30 -29 -30 -60 0 -34 -7 -44 -60 -93
-51 -48 -60 -61 -60 -91 0 -27 -6 -39 -30 -56 -24 -17 -30 -28 -30 -60 0 -32
-6 -43 -30 -60 -25 -17 -30 -28 -30 -60 0 -32 -6 -44 -30 -62 -28 -20 -30 -26
-30 -89 0 -64 -2 -69 -30 -89 -25 -17 -30 -28 -30 -60 0 -32 -6 -44 -30 -62
-28 -20 -30 -26 -30 -90 0 -63 -2 -69 -30 -90 -28 -20 -30 -26 -30 -90 0 -63
-2 -69 -30 -90 -28 -20 -30 -26 -30 -90 0 -63 -2 -69 -30 -90 -28 -20 -30 -26
-30 -90 0 -63 -2 -69 -30 -90 -30 -22 -30 -22 -30 -120 0 -97 0 -98 -30 -120
-30 -22 -30 -22 -30 -120 0 -97 0 -98 -30 -120 -30 -22 -30 -22 -30 -150 0
-127 0 -127 -30 -150 -30 -22 -30 -22 -30 -210 0 -187 0 -187 -30 -210 -30
-22 -30 -22 -30 -270 0 -247 0 -247 -30 -270 -30 -22 -30 -22 -30 -1928 0
-1906 0 -1906 30 -1928 30 -23 30 -23 30 -929 0 -907 0 -907 31 -932 30 -26
30 -26 29 -661 -1 -636 -1 -636 30 -658 30 -23 30 -23 30 -420 0 -398 0 -398
30 -420 30 -23 30 -23 30 -330 0 -308 0 -308 30 -330 30 -23 30 -23 30 -300 0
-278 0 -278 30 -300 30 -23 30 -23 30 -240 0 -218 0 -218 30 -240 30 -23 30
-23 30 -240 0 -218 0 -218 30 -240 30 -23 30 -23 30 -180 0 -158 0 -158 30
-180 30 -23 30 -23 30 -180 0 -158 0 -158 30 -180 30 -23 30 -23 30 -180 0
-158 0 -158 30 -180 30 -23 30 -23 30 -150 0 -128 0 -128 30 -150 30 -23 30
-23 30 -150 0 -128 0 -128 30 -150 30 -23 30 -23 30 -150 0 -128 0 -128 30
-150 28 -21 30 -27 30 -89 0 -62 2 -68 31 -93 31 -25 31 -25 30 -151 -2 -125
-2 -125 29 -147 28 -21 30 -26 30 -90 0 -64 2 -70 30 -90 30 -22 30 -23 30
-120 0 -98 0 -98 30 -120 28 -21 30 -27 30 -90 0 -64 2 -70 30 -90 30 -22 30
-23 30 -120 0 -98 0 -98 30 -120 28 -21 30 -27 30 -90 0 -64 2 -70 30 -90 24
-18 30 -30 30 -62 0 -32 5 -43 30 -60 28 -20 30 -25 30 -89 0 -63 2 -69 30
-89 28 -21 30 -27 30 -90 0 -64 2 -70 30 -90 28 -21 30 -27 30 -90 0 -64 2
-70 30 -90 24 -18 30 -30 30 -62 0 -32 5 -43 30 -60 28 -20 30 -25 30 -89 0
-63 2 -69 30 -89 24 -18 30 -30 30 -62 0 -32 5 -43 30 -60 24 -17 30 -28 30
-60 0 -32 6 -43 30 -60 28 -20 30 -25 30 -89 0 -63 2 -69 30 -89 24 -18 30
-30 30 -62 0 -32 5 -43 30 -60 24 -17 30 -28 30 -60 0 -32 6 -43 30 -60 24
-17 30 -28 30 -60 0 -32 6 -43 30 -60 24 -17 30 -28 30 -60 0 -32 6 -43 30
-60 24 -17 30 -28 30 -60 0 -32 6 -43 30 -60 24 -17 30 -28 30 -60 0 -32 6
-43 30 -60 24 -17 30 -29 30 -56 0 -30 9 -43 60 -91 53 -49 60 -59 60 -93 0
-31 6 -43 30 -60 24 -17 30 -28 30 -60 0 -32 6 -43 30 -60 24 -17 30 -29 30
-56 0 -30 9 -43 60 -91 51 -47 60 -60 60 -90 0 -29 9 -42 60 -90 51 -47 60
-60 60 -90 0 -29 9 -42 60 -90 50 -46 60 -61 60 -89 0 -29 12 -45 90 -120 77
-75 90 -91 90 -120 0 -28 15 -47 120 -150 102 -100 120 -122 120 -148 0 -28
48 -80 437 -469 389 -389 441 -437 469 -437 26 0 48 -18 148 -120 102 -104
122 -120 150 -120 27 0 42 -11 89 -60 47 -50 61 -60 90 -60 28 0 42 -10 90
-60 47 -50 61 -60 90 -60 28 0 42 -10 90 -60 48 -51 61 -60 91 -60 28 0 40 -7
58 -30 17 -24 29 -30 58 -30 31 0 44 -8 93 -60 48 -51 61 -60 91 -60 28 0 40
-7 58 -30 17 -24 29 -30 60 -30 30 0 42 -6 60 -30 17 -24 29 -30 58 -30 28 0
43 -7 63 -30 25 -27 33 -30 92 -30 60 0 66 -2 87 -30 17 -24 29 -30 58 -30 28
0 43 -7 63 -30 25 -27 33 -30 92 -30 60 0 66 -2 87 -30 17 -24 29 -30 58 -30
28 0 43 -7 63 -30 25 -27 33 -30 90 -30 57 0 66 -3 92 -30 28 -29 32 -30 120
-30 88 0 92 -1 120 -30 26 -27 35 -30 90 -30 55 0 64 -3 90 -30 28 -29 32 -30
120 -30 88 0 92 -1 120 -30 29 -30 29 -30 150 -30 121 0 121 0 150 -30 29 -30
29 -30 180 -30 151 0 151 0 180 -30 29 -30 29 -30 270 -30 241 0 241 0 270
-30 29 -30 29 -30 935 -30 906 0 906 0 935 30 29 30 29 30 300 30 271 0 271 0
300 30 29 30 29 30 270 30 241 0 241 0 270 30 29 30 29 30 180 30 151 0 151 0
180 30 29 30 29 30 180 30 151 0 151 0 180 30 29 30 29 30 150 30 121 0 121 0
150 30 29 30 29 30 150 30 121 0 121 0 150 30 28 29 32 30 120 30 88 0 92 1
120 30 28 29 32 30 120 30 88 0 92 1 120 30 28 29 32 30 120 30 88 0 92 1 120
30 28 29 32 30 120 30 88 0 92 1 120 30 26 27 35 30 90 30 55 0 64 3 90 30 26
27 35 30 90 30 55 0 64 3 90 30 28 29 32 30 120 30 88 0 92 1 120 30 26 27 35
30 90 30 55 0 64 3 90 30 26 27 35 30 90 30 55 0 64 3 90 30 26 27 35 30 92
30 57 0 65 3 90 30 20 23 35 30 63 30 29 0 41 6 58 30 21 28 27 30 85 30 57 0
66 3 92 30 26 27 35 30 92 30 57 0 65 3 90 30 20 23 35 30 63 30 29 0 41 6 58
30 21 28 27 30 87 30 59 0 67 3 92 30 20 23 35 30 63 30 29 0 41 6 58 30 21
28 27 30 87 30 59 0 67 3 92 30 20 23 35 30 63 30 29 0 41 6 58 30 18 24 30
30 60 30 31 0 43 6 60 30 18 24 30 30 60 30 31 0 43 6 60 30 18 24 30 30 60
30 31 0 43 6 60 30 18 24 30 30 60 30 31 0 43 6 60 30 21 28 27 30 87 30 59 0
67 3 92 30 20 23 35 30 63 30 29 0 41 6 58 30 18 24 30 30 60 30 31 0 43 6 60
30 18 23 30 30 58 30 30 0 43 9 91 60 49 52 62 60 93 60 29 0 41 6 58 30 18
24 30 30 60 30 31 0 43 6 60 30 18 24 30 30 60 30 31 0 43 6 60 30 18 24 30
30 60 30 31 0 43 6 60 30 18 23 30 30 58 30 30 0 43 9 91 60 49 52 62 60 93
60 29 0 41 6 58 30 18 23 30 30 58 30 30 0 43 9 91 60 48 50 62 60 90 60 29 0
43 10 90 60 49 52 62 60 93 60 29 0 41 6 58 30 18 23 30 30 58 30 30 0 43 9
91 60 48 50 62 60 90 60 29 0 43 10 90 60 47 50 62 60 89 60 29 0 45 13 120
90 76 79 91 90 121 90 29 0 43 9 90 60 47 50 62 60 89 60 29 0 45 13 120 90
75 77 91 90 120 90 28 0 47 15 150 120 102 105 121 120 150 120 28 0 47 15
150 120 101 104 122 120 149 120 28 0 56 24 240 210 182 182 213 210 240 210
27 0 96 66 618 587 522 522 587 591 587 618 0 27 24 55 180 209 158 157 180
183 180 211 0 27 19 50 150 179 132 131 150 152 150 181 0 27 13 45 90 119 78
75 90 91 90 120 0 29 12 45 90 120 78 75 90 91 90 120 0 28 10 43 60 89 51 48
60 61 60 90 0 30 9 43 60 90 51 48 60 61 60 90 0 30 9 43 60 90 51 48 60 61
60 90 0 30 9 43 60 90 51 48 60 61 60 90 0 30 9 43 60 90 51 48 60 61 60 91 0
27 6 39 30 56 24 17 30 29 30 60 0 34 7 44 60 93 51 48 60 61 60 91 0 27 6 39
30 56 24 17 30 28 30 60 0 32 6 43 30 60 24 17 30 29 30 60 0 34 7 44 60 93
51 48 60 61 60 91 0 27 6 39 30 56 24 17 30 28 30 60 0 32 6 43 30 60 24 17
30 28 30 60 0 32 6 43 30 60 25 17 30 28 30 60 0 32 6 44 30 62 28 20 30 26
30 89 0 64 2 69 30 89 24 17 30 28 30 60 0 32 6 43 30 60 24 17 30 28 30 60 0
32 6 43 30 60 25 17 30 28 30 60 0 32 6 44 30 62 28 20 30 26 30 89 0 64 2 69
30 89 25 17 30 28 30 60 0 32 6 44 30 62 28 20 30 26 30 90 0 63 2 69 30 90
28 20 30 26 30 90 0 63 2 69 30 90 28 20 30 26 30 90 0 63 2 69 30 90 28 20
30 26 30 90 0 63 2 69 30 90 30 22 30 22 30 120 0 97 0 98 30 120 28 20 30 26
30 90 0 63 2 69 30 90 30 22 30 22 30 120 0 97 0 98 30 120 30 22 30 22 30
150 0 127 0 127 30 150 30 22 30 22 30 180 0 157 0 157 30 180 30 22 30 22 30
210 0 187 0 187 30 210 30 22 30 22 30 848 0 826 0 826 -30 848 -30 23 -30 23
-30 210 0 188 0 188 -30 210 -30 23 -30 23 -30 150 0 128 0 128 -30 150 -30
23 -30 23 -30 150 0 128 0 128 -30 150 -28 21 -30 27 -30 90 0 64 -2 70 -30
90 -30 22 -30 23 -30 120 0 98 0 98 -30 120 -28 21 -30 27 -30 90 0 64 -2 70
-30 90 -24 18 -30 30 -30 62 0 32 -5 43 -30 60 -28 20 -30 25 -30 89 0 63 -2
69 -30 89 -24 18 -30 30 -30 62 0 32 -5 43 -30 60 -28 20 -30 25 -30 89 0 63
-2 69 -30 89 -24 18 -30 30 -30 62 0 32 -5 43 -30 60 -24 17 -30 28 -30 60 0
32 -6 43 -30 60 -24 17 -30 28 -30 60 0 32 -6 43 -30 60 -24 17 -30 28 -30 60
0 32 -6 43 -30 60 -24 17 -30 29 -30 56 0 30 -9 43 -60 91 -53 49 -60 59 -60
93 0 31 -6 43 -30 60 -24 17 -30 29 -30 56 0 30 -9 43 -60 91 -51 47 -60 60
-60 90 0 29 -9 42 -60 90 -50 46 -60 61 -60 89 0 29 -12 45 -90 120 -77 75
-90 91 -90 120 0 28 -15 47 -120 150 -103 100 -120 122 -120 149 0 27 -34 64
-287 318 -253 253 -291 287 -318 287 -27 0 -52 21 -179 150 -130 131 -152 150
-180 150 -28 0 -51 19 -180 150 -130 131 -152 150 -180 150 -28 0 -53 21 -210
180 -156 157 -183 180 -210 180 -28 0 -57 26 -241 210 -182 183 -213 210 -240
210 -53 0 -55 8 -55 202 0 177 0 177 30 200 30 22 30 22 30 300 0 277 0 277
30 300 30 22 30 22 30 698 0 676 0 676 -30 698 -30 23 -30 23 -30 179 0 157 0
157 -32 183 -30 25 -31 30 -29 88 2 58 0 62 -32 92 -34 30 -34 33 -30 93 5 62
5 63 -30 90 -35 26 -35 27 -30 90 5 62 5 64 -26 86 -26 18 -31 29 -31 61 0 32
-6 43 -30 60 -24 17 -30 29 -30 57 0 31 -8 43 -60 90 -52 47 -60 59 -60 90 0
31 -8 43 -60 90 -51 46 -60 60 -60 89 0 29 -12 44 -90 120 -77 74 -90 92 -90
119 0 29 -18 50 -150 181 -133 131 -150 151 -150 180 0 29 -13 45 -90 120 -77
75 -90 91 -90 120 0 28 -15 47 -120 150 -105 102 -120 121 -120 150 0 28 -15
47 -120 150 -105 103 -120 121 -120 150 0 29 -12 45 -90 120 -77 74 -90 92
-90 119 0 29 -18 50 -150 181 -132 130 -150 151 -150 180 0 28 -16 48 -120
150 -104 102 -120 122 -120 150 0 28 -18 50 -150 180 -130 128 -150 152 -150
179 0 28 -28 59 -240 270 -209 209 -240 243 -240 270 0 27 -51 81 -437 468
-388 387 -441 437 -468 437 -27 0 -55 24 -209 180 -158 159 -182 180 -211 180
-27 0 -45 13 -119 90 -75 78 -91 90 -120 90 -29 0 -45 12 -120 90 -75 77 -91
90 -120 90 -27 0 -42 10 -89 60 -47 50 -61 60 -90 60 -28 0 -42 10 -90 60 -48
51 -61 60 -91 60 -28 0 -40 7 -58 30 -17 24 -29 30 -60 30 -30 0 -42 6 -60 30
-17 24 -29 30 -60 30 -30 0 -42 6 -60 30 -17 24 -29 30 -60 30 -30 0 -42 6
-60 30 -17 24 -29 30 -60 30 -30 0 -42 6 -60 30 -17 24 -29 30 -60 30 -30 0
-42 6 -60 30 -17 24 -29 30 -58 30 -28 0 -43 7 -63 30 -25 27 -33 30 -92 30
-60 0 -66 2 -87 30 -17 24 -29 30 -58 30 -28 0 -43 7 -63 30 -27 29 -29 30
-120 30 -91 0 -94 1 -122 30 -28 29 -32 30 -120 30 -88 0 -92 1 -120 30 -29
30 -29 30 -180 30 -151 0 -151 0 -180 30 -29 30 -29 30 -485 30 -456 0 -456 0
-485 -30z m900 -380 c29 -30 29 -30 210 -30 181 0 181 0 210 -30 29 -30 29
-30 150 -30 121 0 121 0 150 -30 26 -27 35 -30 90 -30 55 0 64 -3 90 -30 26
-27 35 -30 90 -30 55 0 64 -3 90 -30 26 -27 35 -30 92 -30 58 0 64 -2 85 -30
17 -24 29 -30 58 -30 28 0 43 -7 63 -30 25 -27 33 -30 92 -30 60 0 66 -2 87
-30 17 -24 29 -30 60 -30 30 0 42 -6 60 -30 17 -24 29 -30 60 -30 30 0 42 -6
60 -30 17 -24 29 -30 58 -30 31 0 44 -8 93 -60 48 -51 61 -60 91 -60 28 0 40
-7 58 -30 17 -24 29 -30 58 -30 31 0 44 -8 93 -60 47 -50 61 -60 90 -60 28 0
42 -10 90 -60 47 -51 61 -60 90 -60 30 0 45 -11 121 -90 75 -77 91 -90 120
-90 29 0 49 -17 180 -150 128 -130 152 -150 180 -150 28 0 100 -69 703 -672
603 -603 673 -676 673 -704 0 -27 23 -54 180 -210 159 -157 180 -182 180 -210
0 -28 19 -50 150 -180 132 -130 150 -151 150 -180 0 -28 16 -48 120 -150 105
-102 120 -121 120 -150 0 -28 15 -47 120 -150 105 -102 120 -121 120 -150 0
-28 15 -47 120 -150 105 -103 120 -121 120 -150 0 -29 12 -45 90 -120 77 -75
90 -91 90 -120 0 -28 15 -47 120 -150 105 -102 120 -121 120 -150 0 -28 15
-47 120 -150 105 -102 120 -121 120 -150 0 -28 15 -47 120 -150 108 -106 120
-121 120 -152 0 -30 9 -43 60 -89 54 -49 60 -59 60 -93 0 -31 6 -43 30 -60 24
-17 30 -29 30 -59 0 -32 6 -43 34 -65 34 -25 34 -26 29 -87 -6 -61 -5 -63 28
-89 33 -28 33 -28 30 -118 -3 -89 -2 -90 29 -119 31 -29 31 -29 30 -329 -1
-299 -1 -299 32 -326 33 -28 33 -28 0 -55 -32 -28 -32 -28 -32 -570 0 -542 0
-542 -30 -565 -30 -22 -30 -22 -30 -269 0 -248 0 -248 -31 -270 -28 -20 -30
-26 -25 -59 4 -28 2 -41 -10 -51 -14 -11 -19 -10 -36 11 -11 14 -89 96 -175
183 -135 136 -160 157 -187 157 -28 0 -110 79 -793 762 -679 679 -763 766
-763 794 0 27 -40 70 -330 359 -292 291 -330 333 -330 360 0 28 -35 67 -300
330 -265 264 -300 303 -300 330 0 28 -38 69 -330 360 -290 289 -330 333 -330
360 0 27 -45 76 -377 408 -334 334 -381 377 -408 377 -27 0 -52 21 -179 150
-131 132 -152 150 -181 150 -27 0 -45 13 -119 90 -75 77 -91 90 -120 90 -27 0
-42 10 -89 60 -48 51 -61 60 -91 60 -28 0 -40 7 -58 30 -17 24 -29 30 -58 30
-31 0 -44 8 -93 60 -48 51 -61 60 -91 60 -28 0 -40 7 -58 30 -17 24 -29 30
-58 30 -28 0 -43 7 -63 30 -25 27 -33 30 -90 30 -57 0 -66 3 -92 30 -26 27
-35 30 -90 30 -55 0 -64 3 -90 30 -26 27 -35 30 -90 30 -55 0 -64 3 -90 30
-29 30 -29 30 -180 30 -151 0 -151 0 -180 30 -29 30 -29 30 -570 30 -541 0
-541 0 -570 30 -29 30 -29 30 -600 30 -571 0 -571 0 -600 30 -29 30 -29 30
-630 30 -601 0 -601 0 -630 30 -29 30 -29 30 -904 30 -615 -1 -878 3 -885 10
-8 8 1 21 33 47 24 20 84 78 134 130 76 79 95 93 122 93 28 0 67 36 360 330
293 293 333 330 361 330 27 0 56 26 239 210 186 187 213 210 241 210 28 0 48
16 150 120 103 105 121 120 150 120 29 0 45 12 120 90 75 78 91 90 120 90 29
0 45 12 120 90 78 81 90 90 124 90 29 0 41 6 58 30 18 23 30 30 58 30 30 0 43
9 91 60 49 52 62 60 93 60 29 0 41 6 58 30 18 24 30 30 60 30 31 0 43 6 60 30
18 24 30 30 60 30 31 0 43 6 60 30 18 24 30 30 60 30 31 0 43 6 60 30 18 24
30 30 60 30 31 0 43 6 60 30 18 24 30 30 60 30 31 0 43 6 60 30 21 28 27 30
87 30 59 0 67 3 92 30 20 23 35 30 63 30 29 0 41 6 58 30 21 28 27 30 85 30
57 0 66 3 92 30 28 29 32 30 120 30 88 0 92 1 120 30 29 30 29 30 150 30 121
0 121 0 150 30 29 30 29 30 210 30 181 0 181 0 210 30 29 30 29 30 265 30 236
0 236 0 265 -30z m-4185 -2941 c366 -6 677 -10 692 -10 16 1 43 -5 61 -13 25
-10 119 -15 373 -20 528 -10 853 -25 894 -41 27 -11 141 -17 479 -25 245 -6
448 -13 451 -15 4 -3 59 -5 121 -6 68 0 127 -6 145 -14 23 -10 134 -15 410
-19 446 -8 700 -22 730 -41 11 -7 60 -16 110 -19 118 -9 214 -25 240 -41 12
-8 53 -18 92 -23 41 -6 82 -19 99 -30 15 -11 57 -25 92 -31 37 -6 73 -19 85
-30 12 -10 40 -22 62 -26 23 -3 72 -22 110 -41 37 -19 73 -34 79 -34 6 0 26
-11 45 -25 19 -14 41 -25 51 -25 9 0 33 -13 54 -30 21 -16 43 -30 50 -30 6 0
22 -11 35 -24 12 -14 37 -28 54 -32 17 -3 46 -19 64 -35 18 -16 40 -29 49 -29
8 0 31 -13 50 -30 18 -16 39 -30 45 -30 5 0 26 -13 45 -30 18 -16 39 -30 45
-30 10 0 41 -24 113 -85 66 -56 117 -95 126 -95 13 0 179 -142 179 -152 0 -5
8 -12 18 -15 9 -4 42 -31 72 -61 30 -30 68 -61 84 -69 33 -17 115 -95 370
-350 270 -270 343 -347 350 -369 3 -11 61 -77 129 -146 153 -158 266 -277 382
-403 50 -54 102 -109 118 -123 15 -14 27 -32 27 -40 0 -7 16 -28 35 -45 19
-17 35 -34 35 -39 0 -5 41 -49 90 -97 50 -49 90 -92 90 -95 0 -3 39 -45 88
-94 138 -140 255 -269 270 -299 8 -15 26 -36 38 -46 13 -10 24 -22 24 -27 0
-5 42 -51 93 -103 85 -88 183 -189 415 -430 50 -54 92 -103 92 -111 0 -8 14
-24 30 -36 17 -12 30 -26 30 -32 0 -6 28 -38 61 -72 34 -33 244 -244 468 -468
223 -224 417 -418 430 -430 13 -13 133 -134 268 -270 135 -137 248 -248 252
-248 4 0 21 -16 38 -35 17 -19 38 -35 45 -35 8 0 28 -15 45 -32 16 -18 86 -85
153 -148 68 -63 138 -130 155 -147 17 -18 36 -33 42 -33 5 0 18 -9 29 -21 17
-18 19 -34 16 -126 -4 -148 -28 -331 -48 -360 -16 -25 -16 -25 -42 -1 -89 78
-1004 987 -1320 1310 -63 64 -121 131 -130 150 -10 18 -29 39 -45 46 -15 7
-34 26 -42 42 -8 16 -33 44 -55 61 -22 18 -40 37 -40 44 0 6 -96 108 -212 227
-117 118 -253 258 -301 309 -49 52 -125 132 -170 179 -45 46 -88 98 -94 113
-7 16 -24 38 -38 49 -14 11 -25 23 -25 28 0 5 -55 65 -122 133 -68 68 -161
165 -208 216 -47 52 -111 119 -142 151 -31 32 -60 69 -63 82 -4 14 -20 35 -36
47 -16 12 -29 26 -29 31 0 6 -69 79 -152 163 -84 85 -205 209 -268 276 -231
247 -901 910 -933 923 -9 4 -22 19 -28 32 -7 14 -24 29 -40 35 -15 5 -32 18
-38 29 -6 11 -24 23 -39 27 -16 3 -56 31 -90 63 -80 73 -141 122 -154 122 -6
0 -24 11 -42 26 -95 77 -120 94 -137 94 -11 0 -33 14 -51 30 -17 17 -36 30
-43 30 -6 0 -22 11 -35 24 -12 14 -37 28 -54 32 -17 3 -46 19 -64 35 -18 16
-43 29 -56 29 -13 0 -40 14 -61 30 -21 17 -49 30 -62 30 -14 0 -38 11 -54 25
-16 13 -46 27 -67 31 -20 3 -48 17 -62 30 -18 16 -42 24 -90 30 -48 5 -72 13
-90 30 -21 19 -43 25 -119 33 -73 8 -99 15 -116 31 -20 18 -41 22 -154 29
-117 7 -134 11 -156 31 -25 23 -25 23 -567 31 -517 7 -543 9 -568 28 -26 19
-53 20 -591 30 -310 5 -573 13 -584 17 -11 4 -27 13 -36 20 -12 11 -145 16
-644 24 -616 10 -630 11 -670 32 -40 21 -40 21 -1090 22 -1015 1 -1052 0
-1080 -18 -36 -23 -30 -23 -492 -35 -361 -9 -384 -11 -410 -30 -23 -17 -49
-22 -148 -27 -107 -6 -122 -5 -135 11 -13 15 1 31 151 178 170 168 791 748
844 789 28 22 37 23 270 28 132 3 251 7 265 8 14 1 324 -3 690 -9z m-1821 -63
c9 -11 -26 -49 -181 -197 -105 -101 -309 -296 -451 -434 -374 -360 -444 -424
-469 -429 -13 -3 -86 -7 -162 -10 -126 -5 -144 -8 -175 -30 -30 -20 -53 -25
-127 -29 -73 -3 -97 -9 -121 -26 -22 -17 -52 -24 -124 -31 -52 -5 -104 -10
-116 -10 -12 0 -34 -11 -50 -24 -21 -18 -43 -24 -93 -28 -48 -3 -73 -10 -97
-27 -23 -18 -52 -25 -119 -32 -69 -7 -93 -14 -111 -31 -17 -16 -42 -24 -95
-29 -52 -6 -77 -14 -94 -30 -16 -15 -44 -25 -85 -31 -41 -5 -71 -16 -89 -31
-20 -17 -46 -26 -91 -31 -48 -5 -69 -12 -89 -31 -16 -15 -38 -25 -56 -25 -16
0 -48 -13 -71 -29 -26 -17 -62 -31 -95 -35 -34 -5 -62 -15 -78 -30 -14 -13
-41 -26 -60 -30 -19 -3 -44 -16 -56 -27 -12 -11 -41 -25 -65 -30 -23 -5 -55
-21 -71 -34 -16 -14 -40 -25 -52 -25 -13 0 -40 -13 -61 -30 -21 -16 -48 -30
-61 -30 -13 0 -39 -13 -57 -30 -19 -16 -44 -30 -55 -30 -12 0 -36 -13 -54 -29
-19 -16 -50 -32 -70 -36 -22 -4 -43 -16 -52 -30 -8 -12 -26 -25 -40 -29 -14
-3 -36 -17 -50 -31 -14 -14 -33 -25 -44 -25 -10 0 -31 -13 -46 -29 -15 -16
-43 -32 -61 -35 -18 -4 -47 -20 -64 -36 -17 -17 -35 -30 -40 -30 -5 0 -23 -13
-39 -30 -17 -16 -39 -30 -49 -30 -11 0 -32 -13 -48 -30 -16 -16 -33 -30 -39
-30 -5 0 -24 -15 -41 -32 -18 -18 -45 -43 -61 -56 -16 -12 -45 -36 -65 -52
-20 -17 -42 -30 -48 -30 -6 0 -26 -15 -46 -32 -59 -55 -107 -99 -204 -188
-101 -93 -182 -174 -318 -319 -48 -52 -116 -123 -150 -158 -35 -35 -63 -70
-63 -78 0 -7 -13 -23 -30 -35 -16 -12 -30 -30 -30 -41 0 -19 -27 -54 -87 -115
-18 -18 -33 -39 -33 -47 0 -7 -13 -26 -30 -40 -16 -15 -30 -35 -30 -45 0 -10
-13 -31 -30 -47 -16 -16 -30 -37 -30 -47 0 -9 -11 -25 -24 -34 -14 -8 -30 -32
-37 -52 -6 -20 -22 -48 -35 -62 -13 -14 -27 -40 -30 -59 -4 -18 -17 -39 -30
-48 -13 -8 -24 -21 -24 -28 0 -7 -13 -29 -29 -49 -16 -20 -32 -51 -35 -69 -3
-19 -17 -43 -30 -54 -13 -12 -27 -36 -31 -55 -4 -18 -18 -46 -31 -61 -13 -15
-26 -43 -30 -62 -3 -18 -15 -41 -25 -51 -11 -9 -24 -35 -30 -58 -6 -22 -21
-53 -34 -68 -12 -14 -26 -44 -30 -64 -3 -21 -17 -50 -29 -65 -14 -17 -25 -46
-29 -79 -4 -33 -15 -61 -30 -80 -13 -15 -27 -47 -31 -71 -4 -23 -17 -54 -30
-69 -15 -19 -25 -47 -30 -85 -4 -39 -14 -67 -30 -85 -17 -21 -25 -46 -30 -96
-5 -50 -13 -75 -28 -91 -15 -16 -24 -44 -30 -90 -5 -46 -14 -73 -29 -89 -17
-18 -23 -42 -30 -115 -7 -74 -14 -100 -34 -129 -20 -29 -25 -48 -25 -96 0 -86
-16 -169 -38 -201 -16 -22 -21 -52 -26 -134 -5 -104 -11 -126 -41 -179 -10
-17 -15 -57 -15 -120 -2 -156 -14 -257 -36 -281 -17 -18 -19 -45 -25 -251 -9
-303 -17 -388 -38 -412 -15 -17 -16 -139 -18 -1464 -3 -1400 -2 -1447 16
-1482 16 -31 19 -61 20 -206 0 -93 3 -221 7 -284 3 -63 9 -500 13 -972 7 -766
9 -859 24 -881 20 -31 37 -437 37 -907 0 -288 2 -318 19 -350 23 -45 31 -160
40 -571 5 -272 8 -320 22 -335 22 -26 30 -117 38 -435 5 -238 8 -269 24 -287
22 -24 36 -181 37 -401 0 -133 2 -148 25 -197 24 -50 26 -69 33 -258 6 -167
10 -208 24 -223 22 -25 28 -70 36 -273 7 -159 9 -178 30 -205 20 -27 23 -47
30 -187 6 -121 11 -161 24 -175 23 -26 29 -64 37 -238 7 -141 10 -157 30 -179
20 -21 23 -39 30 -150 6 -110 10 -128 29 -149 20 -21 23 -38 28 -143 6 -104 9
-124 30 -155 21 -31 26 -54 33 -158 7 -105 12 -125 31 -145 18 -20 23 -41 28
-119 6 -80 11 -100 30 -120 19 -21 24 -39 29 -117 5 -78 10 -97 30 -121 20
-24 25 -43 30 -120 5 -76 10 -96 30 -119 17 -20 25 -46 29 -92 4 -42 14 -75
30 -98 18 -27 26 -58 33 -124 7 -67 14 -92 30 -110 15 -16 24 -43 29 -89 6
-47 15 -74 30 -90 16 -17 25 -43 30 -90 6 -47 15 -74 30 -90 16 -16 24 -42 28
-86 5 -45 14 -71 30 -91 16 -19 27 -49 33 -94 7 -47 16 -72 30 -84 12 -10 25
-37 30 -64 5 -27 17 -55 29 -65 14 -13 24 -39 31 -87 8 -51 17 -76 36 -96 15
-16 25 -38 25 -56 0 -19 9 -39 24 -53 14 -13 28 -40 31 -62 4 -22 17 -52 30
-67 12 -15 26 -43 30 -62 4 -19 17 -46 30 -60 13 -14 26 -41 30 -60 4 -19 18
-46 30 -60 13 -14 27 -42 30 -63 4 -21 17 -50 30 -65 12 -15 25 -40 29 -57 4
-16 18 -41 31 -55 13 -14 28 -43 34 -65 6 -22 19 -46 30 -52 11 -7 23 -29 27
-49 4 -21 19 -47 35 -62 16 -14 29 -32 29 -40 0 -8 13 -30 30 -49 16 -18 30
-42 30 -51 0 -10 13 -31 30 -47 16 -16 30 -34 30 -40 0 -6 11 -22 24 -35 14
-12 28 -35 31 -50 3 -15 19 -40 35 -55 17 -16 30 -33 30 -38 0 -5 13 -25 30
-44 16 -18 30 -42 30 -53 0 -10 13 -28 30 -40 16 -12 30 -28 30 -36 0 -9 15
-30 33 -48 86 -86 137 -146 143 -170 3 -14 19 -35 35 -47 16 -11 29 -27 29
-35 0 -19 685 -704 705 -704 8 0 24 -13 37 -30 12 -16 30 -30 41 -30 10 0 32
-13 47 -30 15 -16 32 -30 36 -30 4 0 23 -15 41 -32 76 -74 89 -85 113 -93 14
-4 57 -34 95 -66 121 -101 131 -107 161 -115 16 -4 44 -20 62 -36 18 -15 40
-28 49 -28 8 0 31 -13 50 -30 18 -16 40 -30 47 -30 7 0 23 -11 36 -24 12 -14
35 -28 51 -31 15 -4 45 -20 65 -36 20 -16 47 -29 59 -29 12 0 39 -13 60 -30
21 -16 46 -30 55 -30 9 0 34 -13 55 -30 21 -16 48 -30 61 -30 12 0 36 -12 54
-26 17 -14 49 -30 72 -36 22 -5 54 -20 70 -33 16 -14 40 -25 53 -25 13 0 37
-11 53 -25 16 -13 48 -27 71 -31 24 -4 47 -15 56 -26 9 -14 36 -24 86 -34 42
-8 81 -22 93 -33 12 -11 49 -24 86 -31 36 -6 74 -20 85 -30 11 -11 40 -22 65
-26 25 -4 55 -15 67 -26 15 -14 50 -24 118 -33 70 -10 103 -19 119 -34 15 -14
42 -22 91 -27 50 -5 78 -13 97 -29 21 -18 45 -24 120 -29 70 -6 98 -12 113
-26 20 -19 142 -40 231 -40 27 0 51 -7 68 -21 27 -22 143 -38 272 -39 44 0 68
-5 85 -19 31 -24 75 -29 347 -41 199 -9 227 -13 265 -33 42 -22 42 -22 897
-22 855 0 855 0 897 22 39 21 64 23 310 33 298 11 330 15 356 38 14 12 57 17
205 25 159 7 191 11 214 28 21 15 56 21 170 29 205 14 234 19 254 41 13 14 31
19 73 20 117 1 208 15 236 38 21 16 42 21 84 21 93 1 191 17 211 35 14 12 55
21 145 30 100 11 132 18 149 33 16 16 42 21 118 27 78 5 102 11 128 30 24 18
50 24 118 30 66 5 95 12 122 30 27 18 56 25 122 30 68 5 93 12 118 30 25 18
51 25 117 30 66 6 90 12 111 30 19 15 47 24 92 29 42 5 77 15 100 30 22 15 58
26 95 30 39 5 67 14 81 27 16 15 47 24 117 33 72 9 102 17 119 33 16 14 43 23
86 28 43 5 71 14 90 30 18 15 47 25 90 30 43 5 71 14 90 30 18 15 47 25 90 30
43 5 72 14 90 30 15 12 44 25 65 29 21 4 53 18 72 30 20 14 58 27 92 31 38 5
67 15 85 30 18 15 47 26 84 31 35 4 65 15 82 29 15 12 45 25 67 29 22 4 49 16
61 27 12 11 51 25 93 33 50 10 77 20 86 34 9 11 32 22 56 26 23 4 55 17 70 31
19 15 48 26 85 31 35 4 65 15 82 29 15 12 43 26 62 30 19 4 46 17 60 30 14 12
42 26 62 29 21 4 50 17 65 30 15 13 44 26 64 30 20 3 44 15 54 26 10 11 36 23
57 26 21 4 54 19 74 34 22 18 53 31 85 35 29 4 61 16 77 30 15 13 46 28 68 34
23 6 49 19 58 30 10 10 34 22 54 26 20 4 48 17 62 30 14 13 43 28 65 34 22 6
45 19 52 30 7 11 29 22 53 26 22 4 53 17 69 30 15 13 41 27 57 31 16 3 40 17
54 30 14 12 37 26 52 29 15 4 34 18 43 31 9 14 25 24 39 24 14 0 38 12 55 26
17 14 48 30 68 36 21 5 49 20 63 33 14 12 39 26 55 29 17 4 41 18 55 31 14 13
43 28 65 34 22 6 45 19 52 30 7 10 25 22 42 26 16 3 37 17 45 30 9 14 30 27
50 31 20 3 41 16 50 29 9 13 30 25 51 29 20 4 45 18 57 31 11 13 33 27 49 30
15 4 35 17 43 30 9 14 30 27 50 31 20 3 41 16 50 29 9 13 30 25 50 29 22 4 42
17 55 34 10 15 29 28 42 29 12 1 36 16 53 32 18 17 41 31 52 31 11 0 33 13 49
30 16 16 34 30 40 30 6 0 24 14 40 30 16 17 37 30 48 30 11 0 35 14 54 30 18
17 38 30 44 30 6 0 22 14 36 30 14 17 35 30 47 30 12 0 35 13 51 30 16 16 34
30 41 30 7 0 22 13 34 30 13 19 30 30 45 30 15 0 32 11 45 30 12 16 30 30 41
30 11 0 35 15 53 32 60 60 96 88 114 88 10 0 31 13 47 30 16 16 33 30 39 30 5
0 24 15 41 32 56 58 95 88 113 88 10 0 31 13 47 30 16 16 32 30 36 30 4 0 35
27 70 59 34 32 73 61 88 64 14 3 30 16 36 29 6 13 20 24 31 26 12 2 64 43 115
93 51 49 100 89 110 89 10 0 27 13 38 29 12 16 34 31 51 34 17 4 30 13 30 21
0 8 8 21 19 28 23 16 194 172 235 215 17 17 40 33 50 35 11 1 27 16 36 33 9
17 25 30 36 30 22 0 22 0 697 671 273 272 497 501 497 508 0 8 13 24 29 36 17
11 33 31 37 43 3 12 18 33 33 48 14 14 64 68 111 119 47 52 100 109 118 127
17 17 32 36 32 40 0 5 14 22 30 38 17 16 30 35 30 42 0 8 12 26 27 41 15 15
58 63 95 107 37 44 77 91 88 104 12 13 27 36 34 52 6 15 22 38 34 51 73 75
142 154 142 164 0 5 14 23 30 39 17 16 30 34 30 41 0 11 17 34 93 129 13 17
28 41 32 55 4 14 17 36 30 50 13 14 37 40 54 58 17 19 31 38 31 42 0 5 13 24
29 42 15 18 32 44 36 58 4 14 20 37 36 52 16 15 29 33 29 41 0 7 11 23 24 34
13 12 27 35 31 52 4 18 18 39 31 47 13 9 24 23 24 30 0 8 13 28 29 45 17 17
33 44 36 60 4 16 18 37 31 45 13 9 24 22 24 30 0 7 14 29 30 47 17 19 33 49
36 66 4 18 15 38 25 45 11 7 24 28 31 47 6 19 24 49 40 67 15 18 28 39 28 46
0 7 11 23 24 36 14 12 28 37 32 54 3 17 16 42 29 56 12 14 28 41 34 61 7 20
20 44 31 54 10 9 22 30 25 46 4 15 20 45 36 65 16 20 29 42 29 49 0 6 9 20 20
30 10 9 24 34 31 54 6 20 20 45 31 57 10 12 24 39 30 60 5 21 21 51 33 66 13
15 27 42 30 60 4 18 18 45 30 60 13 15 27 42 30 60 4 18 18 45 30 60 12 15 25
42 29 61 3 19 15 42 26 52 11 10 25 36 31 59 6 22 21 53 34 67 13 16 25 48 29
76 3 28 17 64 31 82 13 19 27 48 30 65 4 17 17 47 30 66 13 19 26 51 30 70 4
19 18 47 30 61 13 16 24 47 28 77 3 29 17 67 31 89 14 21 29 54 32 73 4 19 17
47 29 62 14 16 25 47 29 82 4 32 16 66 28 81 11 15 27 57 34 95 7 38 22 82 33
97 10 15 24 56 30 91 5 34 19 74 30 87 11 15 22 50 26 85 4 35 15 70 26 84 12
15 25 61 35 118 9 51 22 103 30 116 9 13 21 59 29 103 9 47 22 90 35 106 12
15 20 41 20 62 0 53 26 192 44 231 8 19 19 75 25 124 7 57 17 96 27 107 10 11
18 41 21 71 9 134 27 256 44 292 12 26 19 65 19 106 1 128 27 354 44 387 15
29 17 93 17 637 0 505 -2 609 -14 633 -9 17 -21 108 -32 238 -9 116 -23 226
-31 245 -17 40 -44 189 -44 238 0 18 -8 49 -19 70 -10 20 -24 75 -31 122 -7
47 -21 99 -31 115 -9 17 -23 59 -29 95 -7 36 -21 79 -31 96 -11 18 -24 58 -31
90 -6 32 -22 73 -34 91 -12 18 -25 57 -29 86 -5 33 -15 61 -30 77 -13 14 -26
41 -30 60 -4 19 -17 46 -29 60 -13 14 -28 43 -34 66 -7 22 -21 49 -32 59 -11
10 -20 24 -20 30 0 7 -13 29 -30 50 -16 21 -30 44 -30 51 0 7 -11 26 -25 42
-14 17 -31 45 -37 64 -11 33 -46 82 -93 128 -14 14 -25 29 -25 34 0 5 -14 24
-30 43 -17 18 -30 39 -30 46 0 11 -32 51 -88 112 -11 11 -50 56 -88 100 -38
44 -83 94 -99 111 -17 16 -71 73 -121 125 -101 103 -183 182 -319 304 -50 44
-106 95 -125 112 -70 65 -115 100 -135 107 -11 3 -47 30 -80 60 -33 29 -74 66
-91 81 -18 15 -48 42 -68 61 -20 19 -41 34 -47 34 -12 0 -196 157 -281 239
-72 70 -114 103 -155 125 -18 9 -37 25 -43 36 -6 11 -16 20 -23 20 -7 0 -24
12 -38 28 -14 15 -67 65 -119 112 -109 99 -165 150 -200 183 -14 13 -36 30
-50 37 -13 7 -49 36 -79 64 -119 111 -246 232 -271 257 -14 14 -33 28 -43 32
-11 4 -21 16 -24 27 -3 10 -20 28 -39 39 -19 11 -34 25 -34 30 0 5 -16 18 -35
30 -61 36 -62 48 -24 368 19 156 54 160 199 25 51 -48 120 -112 153 -142 33
-30 70 -65 81 -77 56 -58 118 -113 128 -113 10 0 213 -171 243 -204 11 -13 28
-26 38 -29 9 -4 22 -18 27 -32 5 -14 14 -25 20 -25 5 0 27 -15 47 -34 21 -18
48 -37 61 -40 12 -4 30 -18 38 -32 9 -13 21 -24 28 -24 6 0 22 -11 36 -24 142
-137 233 -216 249 -216 13 0 127 -95 211 -176 90 -87 132 -124 143 -124 36 0
537 -502 537 -539 0 -6 14 -25 30 -43 90 -96 164 -176 186 -198 13 -14 24 -33
24 -42 0 -20 85 -128 153 -194 15 -15 27 -35 27 -45 0 -10 13 -34 30 -52 16
-19 30 -40 30 -46 0 -6 14 -23 30 -38 17 -14 30 -34 30 -44 0 -10 14 -34 30
-52 17 -19 30 -40 30 -46 0 -6 13 -22 29 -37 16 -14 32 -39 35 -57 4 -17 17
-43 30 -57 13 -14 28 -40 34 -58 6 -18 21 -45 32 -60 66 -86 80 -106 80 -123
0 -9 12 -31 26 -48 14 -17 30 -48 36 -68 6 -21 21 -51 34 -66 13 -16 24 -36
24 -46 0 -10 13 -37 29 -62 16 -24 32 -58 35 -75 4 -18 16 -40 27 -50 10 -9
24 -36 30 -58 6 -23 19 -50 30 -61 10 -11 25 -51 33 -89 7 -37 23 -77 34 -89
11 -12 23 -38 27 -57 4 -19 16 -44 26 -56 11 -12 25 -52 33 -93 8 -42 22 -82
34 -94 11 -12 22 -38 26 -58 4 -21 15 -48 26 -62 10 -13 24 -54 30 -91 6 -37
19 -80 30 -94 12 -16 24 -59 31 -107 6 -46 21 -97 34 -120 12 -22 25 -67 29
-100 3 -33 15 -71 25 -85 13 -18 23 -64 34 -153 11 -92 20 -134 33 -148 13
-15 20 -51 29 -149 9 -96 17 -136 29 -149 14 -15 20 -57 30 -204 10 -143 17
-191 30 -212 14 -22 19 -66 26 -268 12 -319 12 -745 0 -1096 -9 -240 -13 -288
-27 -303 -12 -14 -19 -61 -30 -210 -11 -148 -18 -197 -30 -211 -12 -13 -19
-58 -29 -176 -10 -129 -16 -165 -32 -188 -14 -20 -23 -60 -32 -148 -9 -84 -18
-127 -31 -145 -12 -17 -21 -56 -28 -118 -6 -67 -14 -102 -28 -120 -12 -16 -24
-58 -31 -100 -6 -43 -18 -82 -28 -93 -11 -12 -22 -52 -30 -110 -8 -57 -18 -97
-29 -109 -10 -11 -24 -54 -31 -96 -8 -48 -21 -85 -33 -98 -12 -13 -22 -43 -26
-81 -4 -37 -16 -74 -30 -95 -13 -19 -27 -57 -30 -85 -4 -27 -18 -66 -30 -85
-13 -19 -28 -62 -34 -95 -6 -33 -20 -72 -31 -87 -11 -15 -24 -45 -29 -68 -5
-23 -18 -52 -29 -63 -10 -12 -24 -49 -31 -82 -6 -33 -20 -72 -30 -86 -11 -14
-24 -42 -29 -62 -6 -20 -20 -48 -31 -63 -11 -14 -23 -42 -27 -63 -4 -20 -17
-49 -30 -64 -13 -16 -27 -46 -30 -68 -4 -22 -15 -46 -26 -53 -12 -8 -25 -38
-34 -76 -8 -34 -23 -74 -34 -87 -11 -14 -25 -44 -31 -67 -6 -22 -21 -53 -34
-68 -12 -14 -25 -42 -29 -61 -3 -19 -15 -42 -26 -52 -11 -10 -25 -35 -30 -56
-6 -21 -22 -51 -35 -67 -14 -17 -25 -39 -25 -51 0 -11 -13 -36 -30 -54 -16
-19 -30 -41 -30 -49 0 -8 -11 -25 -25 -38 -14 -13 -27 -38 -31 -56 -3 -18 -17
-42 -30 -55 -13 -12 -26 -37 -30 -55 -3 -18 -13 -39 -21 -45 -20 -17 -43 -64
-43 -88 0 -11 -11 -28 -25 -37 -14 -9 -28 -27 -31 -39 -3 -13 -16 -33 -30 -46
-13 -12 -26 -37 -30 -55 -3 -18 -16 -42 -29 -54 -13 -13 -27 -37 -31 -54 -3
-17 -19 -43 -35 -58 -16 -15 -29 -33 -29 -41 0 -7 -11 -23 -25 -35 -14 -12
-25 -31 -25 -43 0 -11 -13 -34 -30 -51 -16 -16 -30 -34 -30 -38 0 -5 -13 -25
-30 -43 -16 -19 -30 -41 -30 -50 0 -8 -15 -33 -32 -56 -63 -78 -88 -114 -88
-129 0 -8 -15 -32 -32 -53 -71 -84 -88 -107 -88 -123 0 -9 -13 -31 -30 -49
-61 -65 -89 -104 -96 -133 -4 -16 -27 -49 -52 -74 -24 -25 -54 -61 -67 -80
-12 -19 -29 -41 -38 -48 -9 -8 -19 -27 -22 -43 -4 -16 -18 -37 -31 -45 -13 -9
-24 -21 -24 -27 0 -6 -15 -26 -32 -44 -74 -76 -85 -89 -93 -113 -9 -29 -92
-128 -177 -212 -32 -31 -58 -63 -58 -72 0 -8 -13 -24 -30 -36 -16 -12 -30 -31
-30 -42 0 -11 -13 -33 -30 -48 -16 -15 -30 -31 -30 -35 0 -3 -54 -60 -120
-126 -66 -66 -120 -127 -120 -134 0 -8 -11 -22 -25 -31 -14 -9 -32 -31 -39
-48 -8 -17 -52 -71 -100 -121 -312 -326 -436 -453 -475 -489 -25 -23 -113
-110 -197 -193 -84 -84 -155 -153 -157 -153 -3 0 -44 -38 -92 -85 -49 -47 -98
-88 -111 -91 -13 -3 -30 -17 -39 -31 -9 -13 -30 -29 -46 -35 -16 -5 -29 -16
-29 -23 0 -7 -15 -24 -32 -38 -18 -14 -70 -60 -114 -104 -121 -116 -192 -177
-223 -190 -15 -6 -35 -23 -45 -37 -9 -14 -23 -26 -32 -26 -8 0 -41 -27 -73
-60 -32 -33 -62 -60 -66 -60 -4 0 -20 -13 -35 -30 -15 -16 -37 -30 -47 -30
-11 0 -29 -14 -41 -30 -13 -17 -29 -30 -37 -30 -8 0 -27 -13 -42 -29 -51 -52
-173 -151 -186 -151 -7 0 -26 -13 -42 -30 -16 -16 -33 -30 -37 -30 -5 0 -40
-27 -79 -60 -38 -33 -74 -60 -80 -60 -6 0 -27 -13 -46 -30 -18 -16 -38 -30
-44 -30 -6 0 -24 -13 -39 -30 -15 -16 -37 -30 -48 -30 -11 0 -30 -14 -42 -30
-12 -17 -28 -30 -37 -30 -8 0 -43 -24 -76 -54 -34 -29 -73 -57 -87 -61 -23 -7
-37 -17 -123 -87 -18 -15 -45 -30 -59 -33 -14 -4 -36 -18 -49 -31 -12 -13 -28
-24 -34 -24 -6 0 -24 -13 -40 -30 -15 -16 -40 -32 -55 -35 -15 -3 -38 -17 -50
-30 -13 -14 -38 -27 -56 -31 -17 -3 -45 -19 -60 -35 -15 -16 -34 -29 -42 -29
-8 0 -27 -13 -42 -30 -15 -16 -37 -30 -47 -30 -11 0 -30 -11 -43 -25 -13 -14
-29 -25 -36 -25 -7 0 -29 -13 -47 -30 -19 -16 -42 -30 -50 -30 -9 0 -29 -11
-45 -25 -17 -14 -49 -32 -73 -40 -23 -9 -49 -24 -56 -35 -8 -11 -20 -20 -28
-20 -7 0 -27 -11 -43 -25 -17 -14 -45 -31 -64 -37 -18 -6 -46 -21 -63 -33 -16
-13 -46 -28 -66 -34 -20 -7 -44 -20 -54 -31 -10 -11 -32 -22 -51 -26 -18 -3
-42 -16 -54 -29 -13 -13 -37 -27 -54 -31 -17 -3 -42 -17 -56 -29 -14 -13 -41
-26 -62 -30 -20 -4 -46 -18 -59 -31 -12 -13 -28 -24 -34 -24 -7 0 -29 -13 -50
-30 -21 -16 -46 -30 -55 -30 -9 0 -33 -11 -52 -24 -20 -13 -51 -29 -70 -35
-19 -6 -50 -23 -68 -36 -19 -14 -40 -25 -47 -25 -7 0 -42 -16 -79 -35 -36 -19
-79 -35 -95 -35 -18 0 -37 -9 -50 -24 -12 -14 -38 -27 -59 -31 -21 -4 -48 -17
-60 -30 -12 -13 -40 -27 -61 -30 -22 -4 -52 -17 -67 -29 -15 -13 -42 -26 -60
-29 -18 -4 -48 -18 -66 -32 -18 -14 -39 -25 -47 -25 -8 0 -42 -13 -76 -30
-160 -76 -191 -89 -228 -96 -22 -4 -52 -17 -67 -29 -15 -12 -43 -26 -64 -29
-20 -4 -49 -16 -63 -27 -14 -11 -53 -25 -86 -32 -34 -6 -73 -22 -88 -33 -15
-12 -44 -25 -64 -29 -21 -4 -49 -15 -64 -26 -15 -10 -56 -25 -91 -32 -36 -8
-78 -24 -94 -35 -16 -12 -51 -25 -79 -28 -27 -4 -66 -17 -85 -29 -19 -13 -50
-26 -69 -30 -18 -4 -48 -16 -66 -26 -17 -10 -58 -24 -91 -30 -32 -7 -66 -18
-75 -25 -8 -8 -47 -21 -85 -30 -38 -9 -91 -27 -119 -40 -27 -13 -70 -26 -95
-30 -25 -4 -55 -14 -67 -21 -26 -17 -125 -42 -169 -43 -17 0 -43 -9 -58 -21
-16 -12 -57 -26 -102 -34 -41 -7 -83 -20 -93 -29 -10 -9 -47 -21 -82 -27 -35
-6 -82 -19 -104 -30 -22 -10 -78 -24 -125 -32 -47 -7 -97 -21 -110 -30 -14 -8
-68 -22 -120 -30 -53 -7 -107 -21 -121 -30 -14 -10 -64 -22 -110 -28 -46 -6
-100 -19 -120 -29 -19 -10 -73 -24 -120 -30 -46 -7 -100 -18 -119 -25 -53 -20
-120 -34 -201 -41 -41 -4 -87 -13 -103 -22 -35 -17 -163 -41 -224 -42 -24 0
-55 -6 -70 -14 -15 -8 -45 -17 -67 -20 -22 -4 -67 -11 -100 -16 -33 -6 -84
-10 -113 -10 -29 0 -66 -7 -82 -15 -35 -18 -201 -45 -278 -45 -29 0 -63 -5
-75 -12 -29 -16 -308 -47 -427 -48 -68 0 -102 -4 -117 -15 -11 -8 -41 -17 -64
-20 -113 -13 -294 -25 -391 -25 -68 0 -122 -5 -145 -14 -71 -27 -494 -39
-1073 -32 -567 7 -743 14 -775 32 -11 6 -87 14 -170 17 -165 7 -283 21 -360
42 -27 8 -84 17 -125 20 -94 7 -219 29 -245 42 -11 6 -54 13 -95 17 -73 6
-176 29 -208 46 -10 4 -55 14 -102 20 -47 7 -98 20 -115 28 -16 9 -63 21 -103
28 -42 8 -84 22 -99 34 -14 11 -40 20 -57 20 -44 0 -141 25 -168 42 -13 8 -44
18 -70 22 -26 4 -68 18 -95 31 -26 14 -64 28 -83 31 -19 4 -47 17 -62 29 -16
13 -47 25 -80 29 -29 4 -69 18 -88 30 -20 13 -51 27 -70 31 -19 4 -46 17 -60
30 -14 12 -45 25 -70 29 -24 4 -67 20 -95 35 -27 16 -61 32 -74 36 -12 4 -39
18 -58 31 -20 13 -43 24 -52 24 -9 0 -36 14 -60 30 -24 17 -53 30 -63 30 -10
0 -30 11 -43 24 -13 14 -35 28 -47 31 -13 4 -34 17 -48 30 -14 12 -41 28 -61
34 -20 7 -44 20 -54 30 -9 11 -28 22 -43 26 -14 3 -41 20 -59 36 -19 16 -40
29 -47 29 -7 0 -23 11 -36 24 -12 14 -36 28 -52 31 -16 4 -36 18 -44 31 -9 13
-22 24 -29 24 -7 0 -32 16 -55 35 -23 19 -46 35 -52 35 -6 0 -24 11 -42 26
-87 71 -119 94 -128 94 -13 0 -58 37 -141 112 -34 32 -65 58 -69 58 -3 0 -25
16 -48 35 -23 19 -46 35 -51 35 -8 0 -126 108 -215 198 -18 17 -35 32 -39 32
-7 0 -308 303 -400 402 -33 36 -86 92 -117 126 -32 34 -58 68 -58 76 0 8 -14
24 -30 36 -17 12 -30 27 -30 34 0 13 -9 23 -117 138 -29 31 -55 67 -59 82 -3
14 -19 35 -35 47 -16 11 -29 27 -29 36 0 8 -12 27 -26 42 -39 39 -94 112 -94
123 0 6 -13 26 -30 45 -17 18 -30 40 -30 47 0 8 -11 21 -25 30 -14 9 -28 29
-31 44 -4 15 -20 42 -36 60 -15 18 -28 38 -28 43 0 6 -11 20 -24 30 -13 10
-27 31 -31 46 -3 15 -20 42 -36 60 -16 19 -29 40 -29 47 0 8 -11 21 -24 29
-14 9 -26 30 -30 50 -3 19 -17 44 -31 57 -14 13 -27 38 -31 56 -3 17 -19 45
-35 60 -16 15 -29 38 -29 51 0 12 -14 38 -30 56 -17 19 -30 41 -30 49 0 8 -11
25 -24 38 -14 12 -28 36 -31 51 -4 16 -17 42 -30 57 -13 15 -28 45 -34 67 -6
22 -19 45 -30 52 -11 7 -22 29 -26 51 -3 22 -17 50 -31 63 -13 12 -27 38 -30
58 -4 20 -17 47 -29 61 -13 14 -26 41 -30 60 -4 19 -18 46 -30 60 -13 14 -27
42 -30 63 -4 21 -18 50 -30 65 -12 15 -26 43 -30 62 -4 19 -17 46 -30 60 -15
16 -27 48 -34 89 -7 44 -17 68 -31 78 -12 8 -23 31 -26 54 -4 23 -17 53 -30
68 -12 15 -26 44 -29 65 -4 20 -18 50 -31 65 -16 19 -26 47 -30 86 -5 37 -15
66 -30 84 -12 15 -26 44 -29 65 -4 20 -18 50 -31 65 -16 20 -26 47 -30 87 -5
42 -13 66 -30 84 -17 18 -26 45 -33 94 -6 44 -17 76 -30 90 -12 13 -24 46 -30
85 -6 37 -18 73 -30 85 -10 12 -22 40 -26 64 -4 23 -17 55 -30 70 -16 19 -25
47 -30 92 -5 45 -14 72 -28 88 -16 17 -24 47 -33 119 -9 71 -18 101 -33 117
-15 16 -23 42 -27 87 -5 46 -13 71 -29 89 -18 20 -25 45 -33 118 -7 71 -14 98
-30 115 -15 16 -23 42 -28 92 -4 47 -14 81 -29 105 -18 27 -26 60 -35 150 -8
88 -16 120 -30 135 -13 14 -21 42 -25 90 -5 47 -14 80 -28 100 -17 24 -24 56
-32 152 -10 102 -15 127 -33 145 -17 20 -22 42 -30 151 -7 106 -12 131 -29
150 -17 18 -22 43 -30 149 -8 107 -13 131 -30 150 -18 20 -22 43 -31 176 -8
128 -12 158 -29 181 -17 22 -22 52 -30 179 -8 127 -13 156 -29 173 -16 18 -21
47 -29 184 -9 139 -14 167 -30 185 -18 19 -21 47 -31 236 -10 190 -13 218 -31
242 -18 25 -21 51 -30 243 -8 200 -11 218 -31 244 -19 24 -22 40 -22 114 0 47
-5 171 -10 275 -9 161 -13 193 -28 210 -17 19 -20 54 -30 330 -10 274 -13 310
-29 328 -16 18 -19 57 -28 417 -9 354 -12 400 -28 424 -21 33 -23 67 -38 787
-9 461 -11 507 -28 530 -17 24 -19 82 -28 932 -9 834 -11 908 -27 933 -16 24
-18 106 -28 1083 -5 581 -8 1425 -5 1874 6 817 6 817 30 870 23 50 25 68 31
283 6 213 8 232 28 260 19 26 23 51 32 210 10 160 14 183 33 210 19 26 23 49
29 155 6 109 10 128 29 152 18 22 24 45 30 120 6 75 12 98 30 120 18 21 24 44
30 119 5 76 11 98 30 120 15 19 24 47 29 91 5 41 14 70 27 84 13 13 24 47 30
90 7 43 18 77 30 90 12 13 24 48 31 90 7 45 18 78 33 96 16 19 25 46 29 91 6
49 13 69 30 85 13 11 27 37 30 58 4 21 18 50 31 66 14 17 26 48 30 80 5 32 16
64 30 80 13 15 27 42 30 60 4 18 18 45 30 60 13 15 27 42 30 60 4 18 18 46 31
61 13 15 26 43 30 63 4 21 16 41 30 51 13 8 24 21 24 28 0 8 11 27 25 43 14
17 31 45 37 64 6 18 21 45 34 60 12 15 25 41 29 57 3 15 17 39 31 51 13 13 24
29 24 35 0 6 14 24 30 40 17 16 30 36 30 46 0 16 36 67 94 132 14 16 28 42 31
58 4 16 18 37 31 45 13 9 24 22 24 29 0 8 13 23 30 35 16 12 30 27 30 34 0 7
12 23 26 37 15 13 32 36 38 51 16 37 132 162 372 402 260 261 362 355 399 371
17 7 41 25 54 39 14 14 30 26 37 26 7 0 22 14 34 30 12 17 26 30 32 30 5 0 23
12 38 28 43 42 97 82 109 82 5 0 26 14 44 30 19 17 39 30 44 30 5 0 22 14 38
30 16 17 37 30 47 30 9 0 32 13 50 29 18 16 47 32 64 35 17 4 42 18 54 32 13
13 29 24 36 24 7 0 28 13 46 28 18 16 46 32 63 36 16 4 35 16 42 26 8 11 33
24 56 31 23 6 53 21 67 34 14 13 41 26 60 30 19 4 46 17 60 30 14 13 41 26 60
30 19 4 46 17 60 30 14 12 40 25 58 29 19 3 47 17 64 31 16 14 42 25 56 25 15
0 46 13 70 29 26 18 62 32 95 36 33 4 61 15 77 30 14 12 43 25 64 28 21 4 49
15 61 27 13 12 47 25 86 31 35 6 77 20 92 31 15 11 56 24 90 30 34 6 72 20 83
30 13 11 49 23 90 29 38 6 84 20 101 31 18 11 63 24 100 29 37 5 75 17 84 25
10 9 59 22 111 31 51 8 109 23 128 33 19 10 77 23 128 29 52 7 103 18 115 26
24 15 107 31 209 40 37 4 70 11 73 16 10 15 77 28 215 39 93 8 140 16 152 27
19 17 98 28 273 38 84 6 130 13 155 26 28 14 78 20 244 29 123 6 217 15 230
23 53 29 613 50 635 23z m2946 -956 c29 -30 29 -30 660 -30 631 0 631 0 660
-30 29 -30 29 -30 600 -30 571 0 571 0 600 -30 29 -30 29 -30 570 -30 541 0
541 0 570 -30 29 -30 29 -30 150 -30 121 0 121 0 150 -30 28 -29 32 -30 120
-30 88 0 92 -1 120 -30 26 -27 35 -30 92 -30 58 0 64 -2 85 -30 17 -24 29 -30
60 -30 30 0 42 -6 60 -30 17 -24 29 -30 60 -30 30 0 42 -6 60 -30 17 -24 29
-30 60 -30 30 0 42 -6 60 -30 17 -24 29 -30 58 -30 31 0 44 -8 93 -60 47 -50
61 -60 90 -60 28 0 42 -10 90 -60 47 -51 61 -60 90 -60 30 0 45 -11 121 -90
74 -77 91 -90 119 -90 29 0 98 -66 765 -733 651 -651 732 -735 732 -763 0 -27
37 -67 300 -329 264 -263 300 -303 300 -330 0 -28 48 -79 420 -450 397 -396
420 -421 420 -455 0 -45 15 -60 60 -60 44 0 60 -15 60 -55 0 -27 84 -115 780
-810 780 -780 780 -780 780 -897 0 -117 0 -117 -30 -140 -30 -22 -30 -22 -30
-390 0 -367 0 -367 -30 -390 -30 -22 -30 -22 -30 -570 0 -547 0 -547 -30 -570
-30 -22 -30 -22 -30 -908 0 -886 0 -886 30 -908 30 -23 30 -23 30 -472 0 -449
0 -449 -30 -472 -30 -22 -30 -22 -30 -210 0 -187 0 -187 -30 -210 -30 -22 -30
-22 -30 -150 0 -127 0 -127 -30 -150 -28 -20 -30 -26 -30 -90 0 -63 -2 -69
-30 -90 -28 -20 -30 -26 -30 -90 0 -63 -2 -69 -30 -90 -28 -20 -30 -26 -30
-89 0 -64 -2 -69 -30 -89 -24 -17 -30 -28 -30 -60 0 -32 -6 -43 -30 -60 -24
-17 -30 -28 -30 -60 0 -32 -6 -43 -30 -60 -24 -17 -30 -28 -30 -60 0 -32 -6
-43 -30 -60 -24 -17 -30 -29 -30 -60 0 -34 -7 -44 -60 -93 -51 -48 -60 -61
-60 -90 0 -30 -9 -43 -60 -90 -51 -47 -60 -61 -60 -90 0 -30 -11 -45 -90 -121
-77 -74 -90 -91 -90 -119 0 -29 -37 -69 -372 -404 -334 -334 -376 -373 -405
-373 -27 0 -48 -17 -149 -120 -104 -107 -121 -120 -151 -120 -29 0 -43 -9 -90
-60 -48 -50 -62 -60 -90 -60 -29 0 -43 -10 -90 -60 -49 -52 -62 -60 -93 -60
-29 0 -41 -6 -58 -30 -18 -24 -30 -30 -60 -30 -31 0 -43 -6 -60 -30 -18 -23
-30 -30 -58 -30 -30 0 -43 -9 -91 -60 -49 -52 -62 -60 -93 -60 -29 0 -41 -6
-58 -30 -18 -24 -30 -30 -60 -30 -31 0 -43 -6 -60 -30 -21 -28 -27 -30 -87
-30 -59 0 -67 -3 -92 -30 -20 -23 -35 -30 -63 -30 -29 0 -41 -6 -58 -30 -18
-24 -30 -30 -60 -30 -31 0 -43 -6 -60 -30 -18 -24 -30 -30 -60 -30 -31 0 -43
-6 -60 -30 -21 -28 -27 -30 -85 -30 -57 0 -66 -3 -92 -30 -26 -27 -35 -30 -90
-30 -55 0 -64 -3 -90 -30 -26 -27 -35 -30 -90 -30 -55 0 -64 -3 -90 -30 -26
-27 -35 -30 -90 -30 -55 0 -64 -3 -90 -30 -26 -27 -35 -30 -90 -30 -55 0 -64
-3 -90 -30 -28 -29 -32 -30 -120 -30 -88 0 -92 -1 -120 -30 -29 -30 -29 -30
-150 -30 -121 0 -121 0 -150 -30 -29 -30 -29 -30 -150 -30 -121 0 -121 0 -150
-30 -29 -30 -29 -30 -180 -30 -151 0 -151 0 -180 -30 -29 -30 -29 -30 -240
-30 -211 0 -211 0 -240 -30 -29 -30 -29 -30 -1075 -30 -1046 0 -1046 0 -1075
30 -29 30 -29 30 -240 30 -211 0 -211 0 -240 30 -29 30 -29 30 -210 30 -181 0
-181 0 -210 30 -29 30 -29 30 -150 30 -121 0 -121 0 -150 30 -29 30 -29 30
-150 30 -121 0 -121 0 -150 30 -28 29 -32 30 -120 30 -88 0 -92 1 -120 30 -28
29 -32 30 -120 30 -88 0 -92 1 -120 30 -28 29 -32 30 -120 30 -88 0 -92 1
-120 30 -26 27 -35 30 -90 30 -55 0 -64 3 -90 30 -26 27 -35 30 -90 30 -55 0
-64 3 -90 30 -26 27 -35 30 -90 30 -55 0 -64 3 -90 30 -26 27 -35 30 -90 30
-55 0 -64 3 -90 30 -26 27 -35 30 -92 30 -58 0 -64 2 -85 30 -17 24 -29 30
-58 30 -28 0 -43 7 -63 30 -25 27 -33 30 -90 30 -57 0 -66 3 -92 30 -26 27
-35 30 -92 30 -58 0 -64 2 -85 30 -17 24 -29 30 -58 30 -28 0 -43 7 -63 30
-25 27 -33 30 -92 30 -60 0 -66 2 -87 30 -17 24 -29 30 -60 30 -30 0 -42 6
-60 30 -17 24 -29 30 -60 30 -30 0 -42 6 -60 30 -17 24 -29 30 -60 30 -30 0
-42 6 -60 30 -17 24 -29 30 -60 30 -30 0 -42 6 -60 30 -17 24 -29 30 -60 30
-30 0 -42 6 -60 30 -17 24 -29 30 -60 30 -30 0 -42 6 -60 30 -17 24 -29 30
-60 30 -30 0 -42 6 -60 30 -17 24 -29 30 -60 30 -30 0 -42 6 -60 30 -17 24
-29 30 -58 30 -31 0 -44 8 -93 60 -48 51 -61 60 -91 60 -28 0 -40 7 -58 30
-17 24 -29 30 -60 30 -30 0 -42 6 -60 30 -17 24 -29 30 -58 30 -31 0 -44 8
-93 60 -47 50 -61 60 -90 60 -28 0 -42 10 -90 60 -48 51 -61 60 -91 60 -28 0
-40 7 -58 30 -17 24 -29 30 -58 30 -34 0 -46 9 -124 90 -75 77 -91 90 -120 90
-27 0 -42 10 -89 60 -47 50 -61 60 -90 60 -28 0 -42 10 -90 60 -47 51 -61 60
-90 60 -30 0 -45 11 -121 90 -75 78 -91 90 -120 90 -29 0 -47 15 -150 120
-102 104 -122 120 -150 120 -29 0 -50 18 -180 150 -129 130 -152 150 -180 150
-28 0 -85 54 -554 523 -467 467 -522 525 -522 553 0 28 -20 52 -150 180 -134
132 -150 151 -150 181 0 29 -10 43 -60 90 -51 47 -60 60 -60 90 0 29 -9 42
-60 90 -51 47 -60 60 -60 90 0 29 -9 42 -60 90 -52 47 -60 60 -60 91 0 30 -8
42 -60 89 -54 49 -60 59 -60 93 0 31 -6 43 -30 60 -24 17 -30 28 -30 60 0 32
-6 43 -30 60 -24 17 -30 28 -30 60 0 32 -6 43 -30 60 -24 17 -30 29 -30 59 0
32 -6 43 -34 64 -33 26 -34 27 -29 90 5 62 5 64 -26 86 -25 18 -31 29 -31 60
0 32 -6 43 -34 64 -33 26 -34 27 -29 90 5 62 5 63 -30 90 -35 26 -35 27 -30
88 6 61 5 63 -28 89 -33 28 -33 28 -30 118 3 89 3 90 -30 120 -32 30 -32 30
-30 184 2 153 2 153 -28 176 -31 23 -31 23 -31 682 0 659 0 659 30 682 30 22
30 22 30 150 0 127 0 127 30 150 30 22 30 22 30 150 0 127 0 127 30 150 28 20
30 26 30 90 0 63 2 69 30 90 28 20 30 26 30 90 0 63 2 69 30 90 28 20 30 26
30 90 0 63 2 69 30 90 28 20 30 26 30 89 0 64 2 69 30 89 25 17 30 28 30 60 0
32 6 44 30 62 28 20 30 26 30 89 0 64 2 69 30 89 24 17 30 28 30 60 0 32 6 43
30 60 24 17 30 28 30 60 0 32 6 43 30 60 24 17 30 28 30 60 0 32 6 43 30 60
24 17 30 28 30 60 0 32 6 43 30 60 24 17 30 28 30 60 0 32 6 43 30 60 24 17
30 28 30 60 0 32 6 43 30 60 24 17 30 29 30 60 0 34 7 44 60 93 51 48 60 61
60 91 0 27 6 39 30 56 24 17 30 29 30 60 0 34 7 44 60 93 51 48 60 61 60 90 0
30 9 43 60 90 51 48 60 61 60 90 0 30 9 43 60 90 51 48 60 61 60 90 0 30 9 43
60 90 51 47 60 61 60 90 0 30 11 45 90 121 78 75 90 91 90 120 0 29 12 45 90
120 78 75 90 91 90 120 0 29 12 45 90 120 77 75 90 91 90 120 0 29 17 49 150
180 131 130 150 152 150 180 0 28 24 56 210 241 184 182 210 212 210 239 0 28
49 80 450 481 396 395 450 453 450 479 0 27 36 67 282 313 250 250 287 283
314 283 27 0 54 23 210 180 178 180 178 180 359 180 181 0 181 0 210 30 29 30
29 30 450 30 421 0 421 0 450 30 29 30 29 30 1075 30 1046 0 1046 0 1075 -30z
m-4214 -216 c11 -14 10 -19 -11 -36 -14 -10 -177 -170 -362 -356 -297 -296
-338 -340 -338 -367 0 -27 -40 -70 -330 -360 -292 -291 -330 -332 -330 -360 0
-27 -26 -57 -210 -240 -186 -184 -210 -212 -210 -240 0 -27 -16 -48 -120 -149
-105 -103 -120 -122 -120 -150 0 -29 -15 -48 -120 -150 -105 -103 -120 -122
-120 -150 0 -29 -13 -45 -90 -120 -78 -75 -90 -91 -90 -120 0 -28 -10 -43 -60
-89 -51 -47 -60 -61 -60 -90 0 -30 -11 -45 -90 -121 -78 -75 -90 -91 -90 -120
0 -28 -10 -43 -60 -89 -51 -48 -60 -61 -60 -91 0 -27 -6 -39 -30 -56 -24 -17
-30 -29 -30 -60 0 -34 -7 -44 -60 -93 -51 -48 -60 -61 -60 -90 0 -30 -9 -43
-60 -90 -51 -48 -60 -61 -60 -91 0 -27 -6 -39 -30 -56 -24 -17 -30 -28 -30
-60 0 -32 -6 -43 -30 -60 -24 -17 -30 -28 -30 -60 0 -32 -6 -43 -30 -60 -24
-17 -30 -28 -30 -60 0 -32 -6 -43 -30 -60 -24 -17 -30 -28 -30 -60 0 -32 -6
-43 -30 -60 -24 -17 -30 -28 -30 -60 0 -32 -6 -43 -30 -60 -24 -17 -30 -28
-30 -60 0 -32 -6 -43 -30 -60 -24 -17 -30 -28 -30 -60 0 -32 -6 -43 -30 -60
-24 -17 -30 -28 -30 -60 0 -32 -6 -43 -30 -60 -25 -17 -30 -28 -30 -60 0 -32
-6 -44 -30 -62 -28 -20 -30 -26 -30 -90 0 -63 -2 -69 -30 -90 -28 -20 -30 -26
-30 -90 0 -63 -2 -69 -30 -90 -28 -20 -30 -26 -30 -90 0 -63 -2 -69 -30 -90
-28 -20 -30 -26 -30 -90 0 -63 -2 -69 -30 -90 -30 -22 -30 -22 -30 -120 0 -97
0 -98 -30 -120 -30 -22 -30 -22 -30 -150 0 -127 0 -127 -30 -150 -30 -22 -30
-22 -30 -240 0 -217 0 -217 -30 -240 -30 -22 -30 -22 -30 -458 0 -436 0 -436
30 -458 30 -23 30 -23 30 -240 0 -218 0 -218 30 -240 30 -22 30 -23 30 -119 0
-96 0 -97 32 -123 32 -27 32 -27 29 -118 -3 -90 -3 -90 32 -122 34 -30 35 -32
30 -93 -5 -62 -5 -63 30 -90 35 -26 35 -27 30 -90 -5 -62 -5 -63 30 -90 35
-26 35 -27 30 -90 -5 -62 -5 -64 26 -86 25 -18 31 -29 31 -60 0 -32 6 -43 34
-64 33 -26 34 -27 29 -90 -5 -62 -5 -64 26 -86 26 -18 31 -29 31 -61 0 -32 6
-43 30 -60 24 -17 30 -28 30 -60 0 -32 6 -43 30 -60 24 -17 30 -29 30 -57 0
-31 8 -43 60 -90 54 -49 60 -59 60 -93 0 -31 6 -43 30 -60 24 -17 30 -28 30
-60 0 -32 6 -43 30 -60 24 -17 30 -29 30 -56 0 -30 9 -43 60 -91 51 -47 60
-60 60 -90 0 -29 9 -42 60 -90 50 -46 60 -61 60 -89 0 -29 12 -45 90 -120 77
-75 90 -91 90 -120 0 -28 15 -47 120 -150 104 -102 120 -122 120 -149 0 -29
21 -53 180 -211 156 -154 180 -182 180 -209 0 -27 32 -62 257 -288 225 -225
261 -257 288 -257 27 0 61 -30 270 -240 211 -212 242 -240 270 -240 27 0 51
-20 179 -150 131 -132 152 -150 181 -150 27 0 45 -13 119 -90 75 -78 91 -90
120 -90 29 0 45 -12 120 -90 75 -77 91 -90 120 -90 27 0 42 -10 89 -60 47 -50
61 -60 90 -60 28 0 42 -10 90 -60 47 -50 61 -60 90 -60 28 0 42 -10 90 -60 47
-50 61 -60 90 -60 28 0 42 -10 90 -60 48 -51 61 -60 91 -60 28 0 40 -7 58 -30
17 -24 29 -30 58 -30 31 0 44 -8 93 -60 48 -51 61 -60 91 -60 28 0 40 -7 58
-30 17 -24 29 -30 60 -30 30 0 42 -6 60 -30 17 -24 29 -30 58 -30 31 0 44 -8
93 -60 48 -51 61 -60 91 -60 28 0 40 -7 58 -30 17 -24 29 -30 60 -30 30 0 42
-6 60 -30 17 -24 29 -30 60 -30 30 0 42 -6 60 -30 17 -24 29 -30 60 -30 30 0
42 -6 60 -30 17 -24 29 -30 58 -30 28 0 43 -7 63 -30 25 -27 33 -30 92 -30 60
0 66 -2 87 -30 17 -24 29 -30 60 -30 30 0 42 -6 60 -30 17 -24 29 -30 60 -30
30 0 42 -6 60 -30 17 -24 29 -30 58 -30 28 0 43 -7 63 -30 25 -27 33 -30 92
-30 60 0 66 -2 87 -30 17 -24 29 -30 58 -30 28 0 43 -7 63 -30 25 -27 33 -30
92 -30 60 0 66 -2 87 -30 17 -24 29 -30 58 -30 28 0 43 -7 63 -30 25 -27 33
-30 90 -30 57 0 66 -3 92 -30 26 -27 35 -30 90 -30 55 0 64 -3 90 -30 26 -27
35 -30 90 -30 55 0 64 -3 90 -30 26 -27 35 -30 90 -30 55 0 64 -3 90 -30 26
-27 35 -30 90 -30 55 0 64 -3 90 -30 28 -29 32 -30 120 -30 88 0 92 -1 120
-30 28 -29 32 -30 120 -30 88 0 92 -1 120 -30 28 -29 32 -30 120 -30 88 0 92
-1 120 -30 29 -30 29 -30 150 -30 121 0 121 0 150 -30 29 -30 29 -30 150 -30
121 0 121 0 150 -30 29 -30 29 -30 180 -30 151 0 151 0 180 -30 29 -30 29 -30
240 -30 211 0 211 0 240 -30 29 -30 29 -30 390 -30 361 0 361 0 390 -30 29
-30 29 -30 455 -30 426 0 426 0 455 30 29 30 29 30 390 30 361 0 361 0 390 30
29 30 29 30 240 30 211 0 211 0 240 30 29 30 29 30 180 30 151 0 151 0 180 30
28 29 32 30 120 30 88 0 92 1 120 30 29 30 29 30 150 30 121 0 121 0 150 30
26 27 35 30 90 30 55 0 64 3 90 30 28 29 32 30 120 30 88 0 92 1 120 30 26 27
35 30 90 30 55 0 64 3 90 30 26 27 35 30 90 30 55 0 64 3 90 30 26 27 35 30
92 30 57 0 65 3 90 30 20 23 35 30 63 30 29 0 41 6 58 30 18 24 30 30 60 30
31 0 43 6 60 30 21 28 27 30 87 30 59 0 67 3 92 30 20 23 35 30 63 30 29 0 41
6 58 30 18 24 30 30 60 30 31 0 43 6 60 30 18 24 30 30 60 30 31 0 43 6 60 30
18 24 30 30 60 30 31 0 43 6 60 30 18 24 30 30 60 30 31 0 43 6 60 30 18 23
30 30 58 30 30 0 43 9 91 60 48 50 62 60 90 60 29 0 43 10 90 60 48 50 62 60
90 60 29 0 43 10 90 60 47 50 62 60 89 60 29 0 45 13 120 90 73 76 92 90 118
90 28 0 79 47 469 437 390 390 437 441 437 469 0 26 14 45 90 118 79 76 90 91
90 121 0 26 7 38 30 55 24 17 30 29 30 60 0 34 7 44 60 93 51 48 60 61 60 91
0 27 6 39 30 56 24 17 30 28 30 60 0 32 6 43 30 60 24 17 30 28 30 60 0 32 6
43 30 60 24 17 30 28 30 60 0 32 6 43 30 60 25 17 30 28 30 60 0 32 6 44 30
62 28 20 30 26 30 90 0 63 2 69 30 90 28 20 30 26 30 90 0 63 2 69 30 90 30
22 30 22 30 120 0 97 0 98 30 120 30 22 30 22 30 180 0 157 0 157 30 180 30
22 30 22 30 1830 0 1807 0 1807 30 1830 30 22 30 22 30 450 0 427 0 427 30
450 30 22 30 22 30 327 1 306 1 306 39 349 38 43 38 43 262 -183 123 -124 228
-233 232 -241 5 -8 23 -14 46 -14 35 0 48 -11 246 -210 183 -185 212 -210 240
-210 27 0 53 -22 209 -180 158 -159 182 -180 211 -180 27 0 47 -16 149 -120
101 -103 122 -120 149 -120 29 0 76 -44 465 -433 390 -390 432 -435 432 -464
0 -28 13 -45 90 -119 82 -79 90 -90 90 -125 0 -30 6 -42 30 -59 24 -17 30 -29
30 -56 0 -30 9 -43 60 -91 53 -49 60 -59 60 -93 0 -31 6 -43 30 -60 24 -17 30
-28 30 -60 0 -32 6 -43 30 -60 28 -20 30 -25 30 -89 0 -63 2 -69 30 -89 28
-21 30 -27 30 -90 0 -64 2 -70 30 -90 28 -21 30 -27 30 -90 0 -64 2 -70 30
-90 30 -22 30 -23 30 -120 0 -98 0 -98 30 -120 30 -23 30 -23 30 -150 0 -128
0 -128 30 -150 30 -23 30 -23 30 -240 0 -218 0 -218 30 -240 30 -23 30 -23 30
-622 0 -599 0 -599 -30 -622 -30 -22 -30 -22 -30 -240 0 -217 0 -217 -30 -240
-30 -22 -30 -22 -30 -180 0 -157 0 -157 -30 -180 -30 -22 -30 -22 -30 -120 0
-97 0 -98 -30 -120 -30 -22 -30 -22 -30 -150 0 -127 0 -127 -30 -150 -28 -20
-30 -26 -30 -90 0 -63 -2 -69 -30 -90 -30 -22 -30 -22 -30 -120 0 -97 0 -98
-30 -120 -28 -20 -30 -26 -30 -90 0 -63 -2 -69 -30 -90 -28 -20 -30 -26 -30
-90 0 -63 -2 -69 -30 -90 -28 -20 -30 -26 -30 -90 0 -63 -2 -69 -30 -90 -28
-20 -30 -26 -30 -89 0 -64 -2 -69 -30 -89 -25 -17 -30 -28 -30 -60 0 -32 -6
-44 -30 -62 -28 -20 -30 -26 -30 -89 0 -64 -2 -69 -30 -89 -24 -17 -30 -28
-30 -60 0 -32 -6 -43 -30 -60 -25 -17 -30 -28 -30 -60 0 -32 -6 -44 -30 -62
-28 -20 -30 -26 -30 -89 0 -64 -2 -69 -30 -89 -24 -17 -30 -28 -30 -60 0 -32
-6 -43 -30 -60 -24 -17 -30 -28 -30 -60 0 -32 -6 -43 -30 -60 -24 -17 -30 -28
-30 -60 0 -32 -6 -43 -30 -60 -24 -17 -30 -28 -30 -60 0 -32 -6 -43 -30 -60
-24 -17 -30 -28 -30 -60 0 -32 -6 -43 -30 -60 -24 -17 -30 -29 -30 -60 0 -34
-7 -44 -60 -93 -51 -48 -60 -61 -60 -91 0 -27 -6 -39 -30 -56 -24 -17 -30 -28
-30 -60 0 -32 -6 -43 -30 -60 -24 -17 -30 -29 -30 -60 0 -34 -7 -44 -60 -93
-51 -48 -60 -61 -60 -91 0 -27 -6 -39 -30 -56 -24 -17 -30 -29 -30 -60 0 -34
-7 -44 -60 -93 -51 -48 -60 -61 -60 -90 0 -30 -9 -43 -60 -90 -51 -48 -60 -61
-60 -90 0 -30 -9 -43 -60 -90 -51 -47 -60 -61 -60 -90 0 -30 -11 -45 -90 -121
-78 -75 -90 -91 -90 -120 0 -28 -10 -43 -60 -89 -51 -47 -60 -61 -60 -90 0
-30 -13 -47 -120 -151 -105 -103 -120 -122 -120 -150 0 -29 -15 -48 -120 -150
-104 -102 -120 -122 -120 -150 0 -28 -21 -53 -180 -210 -157 -156 -180 -183
-180 -210 0 -28 -64 -95 -613 -644 -547 -547 -615 -612 -643 -612 -27 0 -54
-23 -210 -180 -157 -159 -182 -180 -210 -180 -28 0 -48 -16 -150 -120 -103
-105 -121 -120 -150 -120 -29 0 -45 -12 -120 -90 -75 -78 -91 -90 -120 -90
-29 0 -45 -12 -120 -90 -75 -78 -91 -90 -120 -90 -29 0 -45 -12 -120 -90 -76
-79 -91 -90 -121 -90 -29 0 -43 -9 -90 -60 -48 -50 -62 -60 -90 -60 -29 0 -43
-10 -90 -60 -48 -50 -62 -60 -90 -60 -29 0 -43 -10 -90 -60 -48 -50 -62 -60
-90 -60 -29 0 -43 -10 -90 -60 -49 -52 -62 -60 -93 -60 -29 0 -41 -6 -58 -30
-18 -23 -30 -30 -58 -30 -30 0 -43 -9 -91 -60 -49 -52 -62 -60 -93 -60 -29 0
-41 -6 -58 -30 -18 -23 -30 -30 -58 -30 -30 0 -43 -9 -91 -60 -49 -52 -62 -60
-93 -60 -29 0 -41 -6 -58 -30 -18 -24 -30 -30 -60 -30 -31 0 -43 -6 -60 -30
-18 -24 -30 -30 -60 -30 -31 0 -43 -6 -60 -30 -18 -23 -30 -30 -58 -30 -30 0
-43 -9 -91 -60 -49 -52 -62 -60 -93 -60 -29 0 -41 -6 -58 -30 -18 -24 -30 -30
-60 -30 -31 0 -43 -6 -60 -30 -18 -24 -30 -30 -60 -30 -31 0 -43 -6 -60 -30
-18 -24 -30 -30 -60 -30 -31 0 -43 -6 -60 -30 -18 -24 -30 -30 -60 -30 -31 0
-43 -6 -60 -30 -21 -28 -27 -30 -87 -30 -59 0 -67 -3 -92 -30 -20 -23 -35 -30
-63 -30 -29 0 -41 -6 -58 -30 -18 -24 -30 -30 -60 -30 -31 0 -43 -6 -60 -30
-18 -24 -30 -30 -60 -30 -31 0 -43 -6 -60 -30 -18 -24 -30 -30 -60 -30 -31 0
-43 -6 -60 -30 -21 -28 -27 -30 -87 -30 -59 0 -67 -3 -92 -30 -20 -23 -35 -30
-63 -30 -29 0 -41 -6 -58 -30 -21 -28 -27 -30 -87 -30 -59 0 -67 -3 -92 -30
-20 -23 -35 -30 -63 -30 -29 0 -41 -6 -58 -30 -21 -28 -27 -30 -85 -30 -57 0
-66 -3 -92 -30 -26 -27 -35 -30 -92 -30 -57 0 -65 -3 -90 -30 -20 -23 -35 -30
-63 -30 -29 0 -41 -6 -58 -30 -21 -28 -27 -30 -85 -30 -57 0 -66 -3 -92 -30
-26 -27 -35 -30 -90 -30 -55 0 -64 -3 -90 -30 -26 -27 -35 -30 -90 -30 -55 0
-64 -3 -90 -30 -28 -29 -32 -30 -120 -30 -88 0 -92 -1 -120 -30 -26 -27 -35
-30 -90 -30 -55 0 -64 -3 -90 -30 -26 -27 -35 -30 -90 -30 -55 0 -64 -3 -90
-30 -28 -29 -32 -30 -120 -30 -88 0 -92 -1 -120 -30 -28 -29 -32 -30 -120 -30
-88 0 -92 -1 -120 -30 -28 -29 -32 -30 -120 -30 -88 0 -92 -1 -120 -30 -28
-29 -32 -30 -120 -30 -88 0 -92 -1 -120 -30 -29 -30 -29 -30 -150 -30 -121 0
-121 0 -150 -30 -29 -30 -29 -30 -150 -30 -121 0 -121 0 -150 -30 -29 -30 -29
-30 -150 -30 -121 0 -121 0 -150 -30 -29 -30 -29 -30 -210 -30 -181 0 -181 0
-210 -30 -29 -30 -29 -30 -210 -30 -181 0 -181 0 -210 -30 -29 -30 -29 -30
-330 -30 -301 0 -301 0 -330 -30 -29 -30 -29 -30 -895 -30 -866 0 -866 0 -895
30 -29 30 -29 30 -300 30 -271 0 -271 0 -300 30 -29 30 -29 30 -180 30 -151 0
-151 0 -180 30 -29 30 -29 30 -150 30 -121 0 -121 0 -150 30 -28 29 -32 30
-120 30 -88 0 -92 1 -120 30 -26 27 -35 30 -90 30 -55 0 -64 3 -90 30 -28 29
-31 30 -122 30 -91 0 -93 0 -115 30 -17 24 -29 30 -58 30 -28 0 -43 7 -63 30
-25 27 -33 30 -90 30 -57 0 -66 3 -92 30 -26 27 -35 30 -92 30 -58 0 -64 2
-85 30 -17 24 -29 30 -60 30 -30 0 -42 6 -60 30 -17 24 -29 30 -60 30 -30 0
-42 6 -60 30 -17 24 -29 30 -60 30 -30 0 -42 6 -60 30 -17 24 -29 30 -60 30
-30 0 -42 6 -60 30 -17 24 -29 30 -60 30 -30 0 -42 6 -60 30 -17 24 -29 30
-60 30 -30 0 -42 6 -60 30 -17 24 -29 30 -58 30 -31 0 -44 8 -93 60 -48 51
-61 60 -91 60 -28 0 -40 7 -58 30 -17 24 -29 30 -58 30 -34 0 -46 9 -124 90
-75 78 -91 90 -120 90 -29 0 -45 12 -120 90 -74 77 -91 90 -119 90 -29 0 -69
37 -405 373 -332 333 -372 375 -372 404 0 27 -17 48 -120 149 -107 104 -120
121 -120 151 0 29 -9 43 -60 90 -51 47 -60 60 -60 90 0 29 -9 42 -60 90 -51
47 -60 60 -60 90 0 29 -9 42 -60 90 -53 49 -60 59 -60 93 0 31 -6 43 -30 60
-24 17 -30 28 -30 60 0 32 -6 43 -30 60 -24 17 -30 28 -30 60 0 32 -6 43 -30
60 -24 17 -30 28 -30 60 0 32 -6 43 -30 60 -24 17 -30 28 -30 60 0 32 -6 43
-30 60 -24 17 -30 28 -30 60 0 32 -6 43 -30 60 -24 17 -30 28 -30 60 0 32 -6
43 -30 60 -24 17 -30 28 -30 60 0 32 -6 43 -30 60 -28 20 -30 25 -30 89 0 63
-2 69 -30 89 -24 18 -30 30 -30 62 0 32 -5 43 -30 60 -28 20 -30 25 -30 89 0
63 -2 69 -30 89 -28 21 -30 27 -30 90 0 64 -2 70 -30 90 -28 21 -30 27 -30 90
0 64 -2 70 -30 90 -28 21 -30 27 -30 90 0 64 -2 70 -30 90 -30 22 -30 23 -30
120 0 98 0 98 -30 120 -28 21 -30 27 -30 90 0 64 -2 70 -30 90 -30 22 -30 23
-30 120 0 98 0 98 -30 120 -30 22 -30 23 -30 120 0 98 0 98 -30 120 -30 22
-30 23 -30 120 0 98 0 98 -30 120 -30 23 -30 23 -30 150 0 128 0 128 -30 150
-30 23 -30 23 -30 150 0 128 0 128 -30 150 -30 23 -30 23 -30 150 0 128 0 128
-30 150 -30 23 -30 23 -30 210 0 188 0 188 -30 210 -30 23 -30 23 -30 180 0
158 0 158 -30 180 -30 23 -30 23 -30 240 0 218 0 218 -30 240 -30 23 -30 23
-30 240 0 218 0 218 -30 240 -30 23 -30 23 -30 300 0 278 0 278 -30 300 -30
23 -30 23 -30 360 0 338 0 338 -30 360 -30 23 -30 23 -30 450 0 428 0 428 -30
450 -30 23 -30 23 -30 630 0 608 0 608 -30 630 -30 23 -30 23 -30 1170 0 1148
0 1148 -30 1170 -30 23 -30 23 -30 1462 0 1439 0 1439 30 1462 30 22 30 22 30
330 0 307 0 307 30 330 30 22 30 22 30 210 0 187 0 187 30 210 30 22 30 22 30
150 0 127 0 127 30 150 30 22 30 22 30 150 0 127 0 127 30 150 30 22 30 22 30
120 0 97 0 98 30 120 28 20 30 26 30 90 0 63 2 69 30 90 28 20 30 26 30 90 0
63 2 69 30 90 28 20 30 26 30 89 0 64 2 69 30 89 25 17 30 28 30 60 0 32 6 44
30 62 28 20 30 26 30 89 0 64 2 69 30 89 24 17 30 28 30 60 0 32 6 43 30 60
24 17 30 28 30 60 0 32 6 43 30 60 24 17 30 28 30 60 0 32 6 43 30 60 24 17
30 28 30 60 0 32 6 43 30 60 24 17 30 29 30 60 0 34 7 44 60 93 51 48 60 61
60 91 0 27 6 39 30 56 24 17 30 29 30 60 0 34 7 44 60 93 51 47 60 61 60 90 0
30 11 45 90 121 77 74 90 91 90 119 0 29 37 69 372 404 334 334 376 373 405
373 27 0 48 17 149 120 104 107 121 120 151 120 29 0 43 9 90 60 49 52 62 60
93 60 29 0 41 6 58 30 18 23 30 30 58 30 30 0 43 9 91 60 49 52 62 60 93 60
29 0 41 6 58 30 18 24 30 30 60 30 31 0 43 6 60 30 18 24 30 30 60 30 31 0 43
6 60 30 18 24 30 30 60 30 31 0 43 6 60 30 18 24 30 30 60 30 31 0 43 6 60 30
18 24 30 30 60 30 31 0 43 6 60 30 21 28 27 30 87 30 59 0 67 3 92 30 20 23
35 30 63 30 29 0 41 6 58 30 21 28 27 30 85 30 57 0 66 3 92 30 26 27 35 30
90 30 55 0 64 3 90 30 26 27 35 30 90 30 55 0 64 3 90 30 28 29 32 30 120 30
88 0 92 1 120 30 26 27 35 30 90 30 55 0 64 3 90 30 29 30 29 30 150 30 121 0
121 0 150 30 28 29 31 30 122 30 90 0 94 1 119 30 22 24 36 30 78 33 28 2 54
4 57 5 4 1 13 -5 20 -14z"/>
<path fill="#915a4a" fill-rule="evenodd" d="M10094 27620 c-276 -6 -240 9 -439 -180 -55 -52 -231 -217 -390 -366
-308 -289 -445 -425 -445 -443 0 -19 49 -24 159 -17 83 5 112 11 134 27 26 19
51 21 410 30 462 12 456 12 492 35 28 18 65 19 1080 18 1050 -1 1050 -1 1090
-22 40 -21 54 -22 670 -32 499 -8 632 -13 644 -24 9 -7 25 -16 36 -20 11 -4
274 -12 584 -17 538 -10 565 -11 591 -30 25 -19 51 -21 568 -28 542 -8 542 -8
567 -31 22 -20 39 -24 156 -31 113 -7 134 -11 154 -29 17 -16 43 -23 116 -31
78 -8 97 -13 116 -33 17 -18 36 -25 92 -30 55 -6 74 -12 85 -27 8 -12 33 -25
57 -30 23 -5 55 -21 71 -34 16 -14 42 -25 57 -25 16 0 44 -13 66 -30 21 -16
48 -30 60 -30 12 0 32 -11 45 -25 13 -14 43 -31 66 -36 23 -6 53 -22 65 -35
12 -13 27 -24 32 -24 5 0 25 -13 44 -30 18 -16 41 -30 49 -30 9 0 30 -11 48
-26 91 -74 119 -94 132 -94 7 0 61 -40 118 -90 57 -49 109 -90 115 -90 6 0 26
-13 44 -30 19 -16 38 -30 41 -30 4 0 60 -51 124 -114 64 -62 162 -156 216
-207 147 -139 421 -415 586 -589 80 -84 187 -195 238 -246 50 -52 92 -98 92
-104 0 -5 7 -10 15 -10 9 0 24 -13 33 -29 9 -17 25 -32 34 -35 10 -2 21 -12
25 -23 4 -10 21 -32 37 -49 60 -60 96 -104 96 -116 0 -6 15 -25 33 -42 17 -17
70 -74 117 -125 47 -52 113 -122 148 -157 34 -35 62 -68 62 -73 0 -5 9 -11 20
-14 11 -3 23 -13 27 -23 3 -10 34 -45 67 -79 90 -92 126 -133 126 -147 0 -6
15 -25 33 -42 17 -17 70 -73 117 -124 47 -52 127 -136 178 -188 50 -52 92 -98
92 -103 0 -5 9 -11 20 -14 11 -3 23 -13 27 -22 3 -10 73 -84 155 -165 81 -81
148 -152 148 -157 0 -5 18 -24 41 -42 22 -18 48 -48 56 -67 10 -19 24 -34 34
-34 19 0 59 -45 59 -66 0 -13 58 -73 612 -630 317 -319 770 -763 824 -807 16
-14 35 -23 41 -19 24 15 51 200 56 383 2 83 -1 100 -17 118 -11 12 -23 21 -28
21 -8 0 -50 39 -286 268 -52 50 -100 92 -106 92 -6 0 -24 13 -41 30 -16 16
-157 154 -311 307 -155 153 -316 310 -358 348 -42 39 -78 78 -82 88 -3 9 -10
17 -15 17 -13 0 -169 157 -169 170 0 6 -7 10 -15 10 -9 0 -24 13 -33 30 -9 16
-23 30 -30 30 -7 0 -21 13 -30 29 -9 17 -25 32 -34 35 -10 2 -21 12 -24 21 -4
9 -101 110 -215 225 -115 115 -209 216 -209 225 0 8 -11 20 -25 25 -14 5 -30
23 -37 39 -13 29 -145 173 -360 391 -65 66 -118 122 -118 125 0 3 -28 34 -63
68 -89 91 -127 135 -127 147 0 6 -10 21 -23 33 -13 12 -81 85 -152 161 -72 77
-167 177 -212 222 -46 46 -83 86 -83 89 0 4 -15 21 -32 40 -86 87 -98 101 -98
110 0 6 -24 35 -53 65 -29 30 -113 120 -187 200 -74 80 -170 180 -212 222 -43
42 -78 79 -78 82 0 3 -29 34 -65 70 -36 35 -65 71 -65 79 0 20 -664 683 -704
704 -17 8 -42 26 -56 39 -63 60 -110 103 -165 149 -32 28 -72 63 -88 78 -16
15 -44 34 -62 41 -18 8 -38 24 -45 35 -6 12 -15 21 -21 21 -6 0 -41 27 -80 60
-38 33 -76 60 -84 60 -8 0 -30 14 -48 30 -19 17 -38 30 -42 30 -4 0 -23 14
-42 30 -18 17 -41 30 -49 30 -8 0 -32 13 -52 29 -20 16 -51 32 -68 36 -17 3
-41 17 -53 30 -11 14 -27 25 -34 25 -8 0 -24 11 -37 25 -13 14 -38 27 -56 31
-18 3 -47 17 -65 30 -18 13 -38 24 -44 24 -6 0 -42 15 -79 34 -38 19 -87 38
-110 41 -22 4 -50 16 -62 26 -12 11 -49 24 -85 31 -35 6 -75 20 -90 30 -15 11
-56 23 -99 29 -40 6 -82 16 -94 24 -26 16 -122 32 -240 41 -50 3 -99 12 -110
19 -30 19 -284 33 -730 41 -276 4 -387 9 -410 19 -18 8 -77 14 -145 14 -62 1
-117 3 -121 6 -3 2 -206 9 -451 15 -338 8 -452 14 -479 25 -41 16 -366 31
-894 41 -254 5 -348 10 -373 20 -18 8 -45 14 -61 13 -15 0 -326 4 -692 10
-366 6 -676 10 -690 9 -14 -1 -133 -5 -266 -8z M8750 27556 c-74 -6 -145 -17 -156 -23 -13 -8 -107 -17 -230 -23
-166 -9 -216 -15 -244 -29 -25 -13 -71 -20 -155 -26 -175 -10 -254 -21 -273
-38 -12 -11 -59 -19 -152 -27 -138 -11 -205 -24 -215 -39 -3 -5 -36 -12 -73
-16 -102 -9 -185 -25 -209 -40 -12 -8 -63 -19 -115 -26 -51 -6 -109 -19 -128
-29 -19 -10 -77 -25 -128 -33 -52 -9 -101 -22 -111 -31 -9 -8 -47 -20 -84 -25
-37 -5 -82 -18 -100 -29 -17 -11 -63 -25 -101 -31 -41 -6 -77 -18 -90 -29 -11
-10 -50 -24 -86 -30 -35 -6 -76 -20 -90 -30 -14 -11 -54 -24 -89 -30 -38 -7
-73 -20 -86 -32 -12 -11 -43 -24 -69 -29 -29 -5 -53 -17 -61 -29 -10 -14 -31
-22 -69 -26 -36 -5 -70 -18 -98 -36 -24 -17 -55 -30 -70 -30 -14 0 -40 -11
-56 -25 -16 -13 -48 -29 -71 -34 -24 -5 -49 -18 -57 -29 -8 -12 -31 -23 -55
-27 -24 -4 -49 -17 -61 -30 -12 -14 -37 -27 -60 -30 -23 -4 -49 -17 -61 -31
-11 -13 -35 -27 -54 -30 -18 -3 -49 -19 -69 -35 -20 -16 -44 -29 -54 -29 -9 0
-31 -13 -48 -30 -18 -16 -40 -30 -51 -30 -10 0 -26 -11 -35 -24 -8 -13 -30
-27 -48 -31 -18 -4 -48 -20 -66 -36 -18 -16 -41 -29 -50 -29 -10 0 -31 -13
-47 -30 -16 -16 -33 -30 -38 -30 -5 0 -25 -13 -44 -30 -18 -16 -40 -30 -47
-30 -15 0 -148 -107 -181 -145 -11 -13 -30 -26 -43 -30 -12 -3 -27 -15 -32
-26 -6 -10 -25 -25 -43 -33 -42 -18 -103 -73 -401 -372 -278 -277 -353 -358
-371 -401 -7 -15 -24 -38 -39 -50 -14 -13 -26 -28 -26 -33 0 -6 -25 -36 -54
-67 -30 -30 -58 -68 -61 -84 -4 -16 -17 -37 -29 -47 -13 -10 -27 -28 -30 -40
-4 -12 -18 -29 -31 -38 -13 -9 -27 -30 -30 -47 -4 -18 -20 -44 -36 -59 -16
-15 -29 -34 -29 -42 0 -9 -11 -23 -24 -31 -14 -9 -27 -30 -30 -49 -4 -18 -17
-43 -30 -55 -13 -13 -27 -37 -30 -55 -4 -18 -17 -43 -31 -56 -14 -13 -25 -29
-25 -36 0 -7 -13 -28 -29 -46 -16 -18 -32 -47 -35 -64 -4 -18 -16 -40 -27 -50
-11 -10 -24 -37 -30 -60 -6 -24 -20 -51 -30 -60 -11 -9 -24 -35 -30 -58 -6
-22 -21 -53 -34 -68 -14 -17 -25 -47 -29 -81 -5 -38 -14 -61 -31 -77 -14 -13
-26 -39 -29 -64 -4 -27 -16 -52 -31 -66 -18 -17 -25 -37 -31 -88 -5 -49 -13
-71 -30 -89 -17 -17 -25 -40 -30 -84 -5 -41 -14 -69 -30 -88 -15 -19 -25 -47
-30 -90 -5 -43 -14 -71 -29 -90 -16 -19 -25 -46 -30 -94 -5 -49 -14 -76 -30
-96 -19 -22 -25 -44 -30 -120 -6 -75 -12 -98 -30 -119 -18 -22 -24 -45 -30
-120 -6 -75 -12 -98 -30 -120 -19 -24 -23 -43 -29 -152 -6 -106 -10 -129 -29
-155 -19 -27 -23 -50 -33 -210 -9 -159 -13 -184 -32 -210 -20 -28 -22 -47 -28
-260 -6 -215 -8 -233 -31 -283 -24 -53 -24 -53 -30 -870 -3 -449 0 -1293 5
-1874 10 -977 12 -1059 28 -1083 16 -25 18 -98 27 -933 8 -856 10 -908 27
-933 17 -24 19 -67 29 -530 15 -722 17 -753 38 -786 16 -24 19 -70 28 -424 9
-360 12 -399 28 -417 16 -18 19 -54 29 -328 10 -276 13 -311 30 -330 15 -17
19 -49 28 -210 5 -104 10 -228 10 -275 0 -74 3 -90 22 -114 21 -27 23 -44 31
-249 8 -202 11 -223 30 -243 18 -20 21 -44 31 -237 10 -189 13 -217 31 -236
16 -18 21 -46 30 -185 8 -137 13 -166 29 -184 16 -18 21 -46 29 -178 8 -137
12 -161 30 -180 17 -19 21 -44 30 -180 9 -139 12 -159 30 -174 18 -14 22 -34
30 -150 9 -114 13 -136 30 -150 17 -13 22 -34 29 -145 8 -110 13 -132 30 -152
18 -18 23 -43 33 -145 8 -96 15 -128 32 -152 15 -21 23 -53 28 -104 5 -55 11
-78 25 -90 16 -13 22 -39 31 -131 9 -90 16 -123 34 -150 16 -24 25 -57 30
-109 5 -57 11 -78 27 -90 16 -14 22 -36 30 -111 8 -75 15 -100 33 -120 17 -19
24 -43 29 -94 5 -51 13 -76 30 -97 18 -21 25 -45 30 -108 6 -63 12 -87 30
-109 17 -19 26 -47 31 -92 5 -46 14 -73 31 -93 12 -15 26 -48 30 -74 4 -27 15
-54 26 -63 13 -10 22 -38 30 -88 8 -53 17 -80 33 -96 16 -16 24 -39 28 -85 6
-50 12 -67 30 -82 19 -14 25 -32 30 -80 5 -43 14 -69 31 -90 13 -15 27 -48 31
-71 4 -24 17 -54 30 -68 15 -16 25 -44 29 -79 5 -35 16 -64 31 -82 13 -16 26
-48 30 -71 4 -24 17 -54 30 -68 12 -14 26 -42 29 -62 4 -21 17 -48 30 -61 16
-16 25 -41 30 -79 5 -40 14 -62 31 -78 13 -12 27 -40 30 -61 4 -22 17 -52 30
-67 13 -15 27 -46 31 -67 4 -23 17 -47 30 -57 13 -11 25 -35 29 -60 5 -25 16
-49 30 -60 14 -11 25 -34 29 -59 4 -26 15 -48 30 -60 15 -12 27 -35 31 -58 3
-21 17 -49 30 -61 13 -12 26 -39 30 -60 4 -21 17 -48 31 -61 13 -12 26 -37 30
-55 3 -19 16 -40 30 -49 13 -8 24 -25 24 -36 0 -12 13 -34 30 -49 19 -18 30
-38 30 -55 0 -16 11 -36 29 -53 17 -16 32 -42 36 -64 4 -22 16 -43 30 -52 13
-9 26 -30 30 -48 4 -18 20 -48 36 -66 16 -18 29 -38 29 -43 0 -6 11 -20 24
-30 13 -10 27 -31 31 -46 3 -15 20 -42 36 -60 16 -19 29 -39 29 -44 0 -6 11
-20 25 -31 14 -11 25 -28 25 -38 0 -10 16 -37 35 -60 19 -23 35 -46 35 -52 0
-6 11 -19 24 -29 13 -10 27 -31 30 -45 4 -15 19 -40 34 -55 42 -43 79 -92 86
-114 3 -11 16 -25 28 -30 12 -6 26 -24 32 -42 10 -28 51 -79 150 -183 13 -14
27 -35 30 -46 4 -12 15 -24 26 -27 10 -3 25 -19 32 -35 7 -17 51 -72 98 -123
119 -130 459 -468 566 -564 49 -44 102 -94 119 -111 16 -17 40 -35 53 -39 12
-3 30 -17 38 -31 9 -13 23 -24 31 -24 8 0 27 -12 41 -28 58 -59 159 -141 194
-155 20 -8 41 -25 48 -36 6 -12 17 -21 26 -21 8 0 26 -11 40 -25 14 -14 40
-32 59 -39 19 -8 40 -24 47 -35 7 -12 18 -21 25 -21 7 0 27 -13 46 -29 18 -16
45 -33 59 -36 14 -4 36 -18 49 -31 12 -13 28 -24 35 -24 7 0 28 -13 46 -29 18
-15 44 -32 58 -36 14 -4 37 -18 52 -31 15 -12 41 -25 57 -29 15 -3 39 -17 51
-31 13 -13 29 -24 35 -24 7 0 29 -13 50 -30 21 -16 45 -30 55 -30 9 0 37 -13
61 -30 24 -16 51 -30 60 -30 9 0 32 -11 52 -24 19 -13 46 -27 58 -31 13 -4 47
-20 74 -36 28 -15 71 -31 95 -35 25 -4 56 -17 70 -29 14 -13 41 -26 60 -30 19
-4 50 -18 70 -31 19 -12 59 -26 88 -30 33 -4 64 -16 80 -29 15 -12 43 -25 62
-29 19 -3 57 -17 83 -31 27 -13 69 -27 95 -31 26 -4 57 -14 70 -22 27 -17 124
-42 168 -42 17 0 43 -9 57 -20 15 -12 57 -26 99 -34 40 -7 87 -19 103 -28 17
-8 68 -21 115 -28 47 -6 92 -16 102 -20 32 -17 135 -40 208 -46 41 -4 84 -11
95 -17 26 -13 151 -35 245 -42 41 -3 98 -12 125 -20 77 -21 195 -35 360 -42
83 -3 159 -11 170 -17 32 -18 208 -25 775 -32 579 -7 1002 5 1073 32 23 9 77
14 145 14 97 0 278 12 391 25 23 3 53 12 64 20 15 11 49 15 117 15 119 1 398
32 427 48 12 7 46 12 75 12 77 0 243 27 278 45 16 8 53 15 82 15 29 0 80 4
113 10 33 5 78 12 100 16 22 3 52 12 67 20 15 8 46 14 70 14 61 1 189 25 224
42 16 9 62 18 103 22 81 7 148 21 201 41 19 7 73 18 119 25 47 6 101 20 120
30 20 10 74 23 120 29 46 6 96 18 110 28 14 9 68 23 121 30 52 8 106 22 120
30 13 9 63 23 110 30 47 8 103 22 125 32 22 11 69 24 104 30 35 6 75 18 90 28
14 10 56 23 93 29 38 7 79 21 94 33 15 12 41 21 58 21 44 1 143 26 169 43 12
7 42 17 67 21 25 4 68 17 95 30 28 13 81 31 119 40 38 9 77 22 85 30 9 7 43
18 75 25 33 6 74 20 91 30 18 10 48 22 66 26 19 4 50 17 69 30 19 12 58 25 85
29 28 3 63 16 79 28 16 11 58 27 94 35 35 7 76 22 91 32 15 11 43 22 64 26 20
4 49 17 64 29 15 11 54 27 88 33 33 7 72 21 86 32 14 11 43 23 63 27 21 3 49
17 64 29 15 12 45 25 67 29 37 7 68 20 228 96 34 17 68 30 76 30 8 0 29 11 47
25 17 13 51 29 74 34 23 5 52 18 63 29 12 11 38 23 57 27 19 4 46 18 60 30 14
13 41 26 62 30 20 4 46 18 59 31 13 14 34 24 50 24 15 0 57 16 93 35 37 19 72
35 79 35 7 0 28 11 47 25 18 13 49 30 68 36 19 6 50 22 70 35 19 13 43 24 52
24 9 0 34 14 55 30 21 17 44 30 51 30 8 0 24 11 35 24 12 13 37 27 57 31 21 4
48 17 62 30 14 12 40 26 58 30 19 4 43 17 54 30 11 13 35 26 54 29 18 4 46 17
61 30 15 13 39 27 53 31 14 4 39 17 55 29 17 13 45 28 63 34 19 6 47 23 64 37
16 14 35 25 42 25 7 0 23 11 36 24 12 14 35 28 51 31 15 4 45 20 65 36 20 16
43 29 52 29 8 0 30 14 49 30 18 17 40 30 47 30 7 0 23 11 36 25 13 14 32 25
41 25 10 0 33 13 51 29 18 15 43 31 55 35 11 4 28 17 37 30 8 14 29 26 49 30
19 3 44 17 57 31 12 13 35 27 50 30 15 3 40 19 55 35 16 17 35 30 42 30 7 0
23 11 34 24 12 13 33 27 47 31 14 3 41 20 59 36 19 16 40 29 47 29 8 0 21 11
29 24 9 13 28 27 43 30 27 7 72 40 124 89 14 14 36 27 50 30 14 4 30 16 35 29
6 12 23 25 38 29 15 4 43 21 63 38 19 17 40 31 45 31 6 0 20 11 31 25 11 14
25 25 33 25 14 0 81 50 125 93 14 14 35 28 48 32 12 3 27 15 32 26 6 10 26 25
44 33 31 13 59 35 116 91 14 14 30 25 36 25 6 0 20 14 32 30 13 17 31 30 41
30 10 0 26 11 35 25 9 14 31 31 49 39 17 7 55 36 84 65 29 28 56 51 61 51 4 0
18 13 30 30 13 16 32 30 43 30 12 0 23 10 29 25 5 13 24 31 42 38 33 14 114
82 174 144 17 18 33 33 37 33 4 0 47 41 96 90 49 50 97 90 108 90 10 0 23 10
28 23 6 12 24 29 40 38 37 19 105 82 296 272 82 81 152 147 157 147 5 0 14 11
20 25 7 14 20 29 29 32 21 8 193 181 217 218 9 14 22 25 29 25 6 0 20 14 29
30 9 17 24 30 33 30 8 0 15 4 15 10 0 5 42 52 93 104 158 162 201 210 212 241
6 17 21 34 33 40 12 5 25 19 28 30 3 11 33 46 65 77 32 31 59 59 59 62 0 4 38
45 85 93 53 53 88 98 93 117 4 17 18 35 30 41 12 5 26 22 31 37 5 14 21 34 34
43 14 9 27 25 30 36 3 11 15 23 26 26 12 3 21 9 21 14 0 5 13 24 30 42 71 76
90 101 90 112 0 16 47 77 122 157 31 34 60 74 63 90 4 15 17 36 31 47 13 10
24 24 24 30 0 6 27 39 59 73 39 40 62 73 66 95 3 19 16 40 30 49 14 9 25 22
25 29 0 7 14 25 30 39 17 14 33 39 36 56 4 17 17 39 30 49 13 10 24 24 24 30
0 7 16 27 35 47 19 19 35 43 35 53 0 10 9 26 21 37 11 10 27 33 34 50 7 18 22
37 34 43 12 7 23 26 27 46 3 20 16 43 29 53 12 10 26 28 29 40 4 12 18 30 31
38 14 9 27 30 31 49 3 18 17 43 30 56 13 12 24 28 24 34 0 6 13 24 29 39 16
15 32 43 35 60 4 18 17 43 30 55 13 13 27 38 30 56 4 19 18 43 31 54 14 10 25
25 25 33 0 8 14 27 30 43 17 16 30 39 30 51 0 12 12 36 26 53 14 17 30 48 36
68 5 21 20 49 33 63 13 14 26 39 29 56 4 17 18 42 32 54 13 13 24 30 24 38 0
8 14 30 30 49 17 18 30 43 30 54 0 12 11 34 25 51 13 16 29 46 35 67 5 21 19
46 30 56 11 10 23 33 26 52 4 19 17 47 29 61 13 15 28 46 34 68 6 23 20 53 31
67 11 14 25 49 32 79 6 29 21 64 33 78 13 14 26 42 29 62 4 21 17 50 30 65 13
15 26 43 29 61 4 19 16 45 27 59 11 14 25 44 31 66 6 22 19 52 30 66 10 14 24
53 30 86 7 33 21 70 31 82 11 11 24 40 29 63 5 23 18 53 29 68 11 15 25 54 31
87 6 33 21 76 34 95 12 19 26 58 30 85 3 28 17 66 30 85 14 21 26 58 30 95 4
38 14 68 26 81 12 13 25 50 33 98 7 42 21 85 31 96 11 12 21 52 29 109 8 58
19 98 30 110 10 11 22 50 28 93 7 42 19 84 31 100 14 18 22 53 28 120 7 62 16
101 28 118 13 18 22 61 31 145 9 88 18 128 32 148 16 23 22 59 32 188 10 118
17 163 29 176 12 14 19 63 30 211 11 149 18 196 30 210 31 34 47 865 27 1399
-7 202 -12 246 -26 268 -13 21 -20 69 -30 212 -10 147 -16 189 -30 204 -12 13
-20 53 -29 149 -9 98 -16 134 -29 149 -13 14 -22 56 -33 148 -11 88 -21 135
-34 153 -10 14 -22 57 -28 97 -5 42 -17 83 -29 100 -12 17 -24 59 -31 108 -7
49 -19 90 -31 107 -11 14 -24 57 -30 94 -6 37 -20 78 -30 91 -11 14 -22 41
-26 62 -4 20 -15 46 -26 58 -12 12 -26 52 -34 94 -8 42 -22 81 -33 93 -11 12
-23 38 -26 59 -4 21 -17 50 -30 65 -12 15 -27 54 -33 86 -7 33 -21 69 -31 80
-11 12 -24 39 -30 62 -6 22 -19 49 -30 58 -10 9 -24 36 -30 59 -5 23 -22 57
-36 76 -14 19 -25 43 -25 52 0 10 -11 30 -24 46 -13 15 -28 45 -34 66 -6 20
-22 51 -36 68 -14 17 -26 39 -26 48 0 10 -13 35 -30 56 -16 21 -30 43 -30 50
0 6 -11 22 -24 35 -14 12 -28 35 -31 51 -4 15 -20 45 -36 65 -16 20 -29 44
-29 54 0 9 -13 29 -30 45 -16 16 -30 33 -30 38 0 5 -13 25 -30 44 -16 18 -30
43 -30 53 0 11 -13 32 -30 47 -16 14 -30 31 -30 36 0 5 -14 25 -30 44 -17 18
-30 41 -30 50 0 8 -27 46 -60 83 -33 37 -60 72 -60 78 0 5 -11 17 -25 26 -14
9 -28 29 -31 44 -7 27 -104 145 -156 190 -16 13 -28 28 -28 34 0 5 -13 21 -30
35 -16 13 -30 31 -30 39 0 17 -17 35 -258 276 -242 242 -259 258 -277 258 -8
0 -24 14 -37 30 -12 17 -27 30 -33 30 -7 0 -25 15 -42 33 -16 17 -58 57 -93
87 -34 30 -79 70 -98 88 -19 17 -42 32 -51 32 -9 0 -27 11 -41 24 -78 75 -115
108 -208 188 -56 48 -109 88 -117 88 -8 0 -24 14 -37 30 -12 17 -26 30 -32 30
-6 0 -26 17 -46 38 -19 20 -62 60 -94 87 -72 61 -116 100 -162 143 -19 17 -41
32 -49 32 -8 0 -24 14 -37 30 -12 17 -26 30 -30 30 -9 0 -115 99 -255 238 -34
34 -67 62 -72 62 -5 0 -18 11 -29 25 -37 47 -116 61 -125 23 -7 -30 -24 -158
-37 -289 -12 -116 -6 -147 32 -173 27 -19 171 -151 269 -246 101 -99 239 -224
259 -235 26 -15 82 -62 154 -130 211 -199 301 -277 343 -299 18 -9 37 -25 43
-36 6 -11 17 -20 24 -20 7 0 26 -15 43 -32 50 -54 204 -192 234 -210 16 -10
29 -22 29 -28 0 -6 12 -16 28 -23 15 -6 89 -65 165 -129 75 -65 144 -118 152
-118 8 0 24 -13 37 -30 12 -16 27 -30 32 -30 6 0 41 -28 77 -63 37 -34 95 -87
130 -117 66 -58 356 -345 449 -446 102 -110 240 -272 240 -283 0 -6 13 -26 30
-44 16 -19 30 -39 30 -44 0 -5 14 -22 30 -38 17 -16 30 -33 30 -38 0 -5 11
-18 24 -28 14 -11 27 -32 31 -49 3 -16 20 -46 36 -66 16 -20 29 -42 29 -49 0
-7 14 -29 30 -50 17 -21 30 -43 30 -50 0 -6 9 -20 20 -30 11 -10 25 -37 32
-59 6 -23 21 -52 34 -66 12 -14 25 -41 29 -60 4 -19 17 -46 30 -60 15 -16 25
-44 30 -77 4 -29 17 -68 29 -86 12 -18 28 -59 34 -91 7 -32 20 -72 31 -90 10
-17 24 -60 31 -96 6 -36 20 -78 29 -95 10 -16 24 -68 31 -115 7 -47 21 -102
31 -122 11 -21 19 -52 19 -70 0 -49 27 -198 44 -238 8 -19 22 -129 31 -245 11
-130 23 -221 32 -238 12 -24 14 -128 14 -633 0 -544 -2 -608 -17 -637 -17 -33
-43 -259 -44 -387 0 -41 -7 -80 -19 -106 -17 -36 -35 -158 -44 -292 -3 -30
-11 -60 -21 -71 -10 -11 -20 -50 -27 -107 -6 -49 -17 -105 -25 -124 -18 -39
-44 -178 -44 -231 0 -21 -8 -47 -20 -62 -13 -16 -26 -59 -35 -106 -8 -44 -20
-90 -29 -103 -8 -13 -21 -65 -30 -116 -10 -57 -23 -103 -35 -118 -11 -14 -22
-49 -26 -84 -4 -35 -15 -70 -26 -85 -11 -13 -25 -53 -30 -87 -6 -35 -20 -76
-30 -91 -11 -15 -26 -59 -33 -97 -7 -38 -23 -80 -34 -95 -12 -15 -24 -49 -28
-81 -4 -35 -15 -66 -29 -82 -12 -15 -25 -43 -29 -62 -3 -19 -18 -52 -32 -73
-14 -22 -28 -60 -31 -89 -4 -30 -15 -61 -28 -77 -12 -14 -26 -42 -30 -61 -4
-19 -17 -51 -30 -70 -13 -19 -26 -49 -30 -66 -3 -17 -17 -46 -30 -64 -13 -18
-27 -54 -31 -79 -4 -27 -16 -56 -29 -71 -13 -14 -27 -42 -30 -63 -4 -21 -18
-51 -30 -65 -13 -15 -28 -46 -34 -68 -6 -23 -19 -49 -30 -58 -10 -10 -22 -33
-25 -51 -4 -19 -17 -47 -30 -62 -13 -15 -27 -43 -31 -61 -3 -18 -17 -45 -30
-60 -13 -16 -27 -42 -31 -58 -3 -16 -16 -40 -29 -54 -12 -14 -27 -43 -33 -66
-7 -22 -21 -49 -32 -59 -11 -10 -20 -24 -20 -30 0 -7 -13 -29 -29 -49 -16 -20
-32 -50 -36 -65 -3 -16 -15 -37 -25 -46 -11 -10 -24 -34 -31 -54 -6 -20 -22
-47 -34 -61 -13 -14 -26 -39 -29 -56 -4 -17 -18 -42 -32 -54 -13 -13 -24 -29
-24 -36 0 -7 -13 -28 -29 -46 -15 -18 -32 -44 -36 -58 -4 -14 -18 -36 -30 -50
-13 -14 -26 -40 -30 -57 -3 -18 -17 -41 -31 -52 -13 -10 -24 -24 -24 -30 0 -5
-13 -25 -29 -43 -15 -18 -32 -44 -36 -58 -4 -14 -19 -40 -34 -57 -14 -18 -38
-48 -53 -66 -15 -18 -30 -45 -33 -59 -4 -14 -18 -36 -31 -49 -13 -12 -24 -28
-24 -34 0 -6 -13 -24 -30 -40 -16 -15 -32 -41 -35 -56 -4 -16 -17 -37 -31 -48
-13 -10 -24 -24 -24 -30 0 -6 -26 -41 -59 -79 -32 -37 -62 -79 -66 -92 -8 -27
-43 -74 -87 -119 -15 -15 -30 -39 -33 -54 -4 -14 -20 -37 -36 -51 -16 -14 -29
-33 -29 -41 0 -7 -8 -20 -18 -27 -26 -19 -152 -165 -152 -176 0 -16 -77 -110
-180 -222 -33 -36 -63 -74 -66 -85 -3 -11 -17 -31 -29 -45 -13 -14 -39 -42
-57 -64 -18 -21 -46 -53 -63 -71 -159 -173 -202 -222 -212 -247 -7 -17 -22
-32 -33 -35 -11 -3 -23 -16 -26 -29 -4 -14 -16 -32 -28 -42 -11 -9 -29 -29
-39 -45 -10 -15 -22 -27 -27 -27 -14 0 -85 -72 -93 -94 -4 -10 -16 -20 -27
-23 -11 -3 -20 -9 -20 -14 0 -15 -842 -848 -898 -889 -4 -3 -15 -18 -25 -33
-12 -19 -25 -27 -39 -25 -15 2 -26 -6 -38 -27 -9 -16 -26 -32 -37 -35 -21 -5
-153 -122 -268 -237 -36 -36 -72 -63 -83 -63 -13 0 -26 -11 -34 -27 -7 -15
-24 -30 -38 -33 -25 -7 -42 -21 -150 -124 -30 -29 -66 -56 -80 -59 -14 -3 -29
-16 -35 -29 -5 -12 -21 -25 -35 -28 -14 -4 -39 -20 -56 -36 -76 -71 -104 -94
-116 -94 -7 0 -18 -10 -23 -22 -6 -12 -24 -26 -40 -30 -17 -4 -56 -32 -87 -62
-31 -31 -67 -58 -80 -61 -13 -3 -28 -16 -33 -28 -6 -11 -24 -25 -41 -29 -16
-4 -41 -19 -54 -33 -13 -14 -29 -25 -35 -25 -6 0 -21 -13 -32 -29 -12 -15 -34
-31 -50 -34 -16 -3 -32 -15 -38 -29 -6 -14 -20 -24 -37 -26 -16 -2 -36 -15
-48 -32 -11 -16 -33 -31 -48 -35 -15 -3 -32 -15 -37 -28 -6 -13 -23 -24 -42
-28 -18 -3 -46 -20 -62 -38 -16 -17 -36 -31 -44 -31 -8 0 -22 -11 -31 -25 -10
-16 -26 -25 -42 -25 -15 0 -36 -12 -52 -29 -15 -16 -38 -32 -52 -36 -14 -3
-30 -16 -35 -28 -6 -13 -23 -24 -44 -28 -18 -4 -43 -19 -55 -33 -11 -14 -34
-28 -50 -30 -16 -3 -29 -6 -30 -8 -12 -29 -30 -45 -59 -53 -19 -5 -46 -20 -59
-31 -13 -12 -34 -25 -48 -29 -14 -4 -40 -21 -58 -36 -18 -16 -40 -29 -48 -29
-9 0 -25 -11 -35 -24 -11 -14 -34 -28 -52 -31 -17 -4 -43 -17 -57 -30 -14 -12
-36 -26 -50 -30 -14 -4 -40 -21 -58 -36 -18 -16 -40 -29 -48 -29 -9 0 -25 -11
-35 -24 -10 -13 -34 -27 -54 -30 -19 -4 -45 -18 -58 -31 -12 -13 -40 -28 -62
-34 -22 -6 -46 -19 -52 -30 -7 -11 -28 -23 -48 -27 -19 -3 -51 -19 -71 -35
-20 -16 -46 -29 -57 -29 -10 0 -35 -13 -54 -30 -18 -16 -41 -30 -49 -30 -9 0
-25 -11 -35 -24 -12 -15 -34 -27 -58 -31 -21 -3 -49 -17 -61 -30 -12 -13 -39
-26 -60 -30 -21 -4 -48 -17 -60 -30 -12 -13 -39 -27 -60 -30 -25 -4 -44 -15
-54 -30 -10 -15 -29 -25 -58 -30 -24 -4 -54 -17 -68 -30 -14 -13 -41 -26 -60
-30 -19 -4 -46 -17 -60 -30 -14 -13 -45 -26 -70 -30 -50 -8 -75 -19 -105 -45
-11 -10 -36 -20 -56 -24 -20 -3 -44 -15 -54 -26 -10 -11 -36 -23 -58 -27 -21
-3 -51 -16 -67 -29 -15 -13 -43 -27 -62 -30 -18 -4 -44 -17 -58 -30 -14 -12
-43 -26 -65 -29 -22 -4 -51 -18 -65 -30 -16 -15 -44 -26 -78 -30 -33 -4 -63
-16 -80 -30 -16 -13 -46 -26 -67 -30 -22 -4 -51 -17 -65 -30 -15 -13 -50 -26
-89 -33 -37 -6 -73 -20 -85 -31 -12 -11 -39 -23 -61 -26 -22 -4 -50 -16 -62
-27 -12 -12 -52 -26 -94 -34 -48 -9 -76 -20 -85 -33 -10 -13 -31 -21 -74 -26
-38 -4 -73 -16 -95 -31 -20 -13 -54 -27 -76 -30 -23 -4 -51 -17 -63 -29 -17
-16 -41 -25 -87 -30 -44 -5 -72 -15 -91 -30 -19 -16 -47 -25 -90 -30 -43 -5
-72 -15 -90 -30 -19 -16 -47 -25 -90 -30 -43 -5 -70 -14 -86 -28 -17 -16 -47
-24 -119 -33 -69 -9 -101 -18 -117 -32 -14 -14 -45 -24 -95 -31 -49 -6 -80
-16 -95 -30 -15 -14 -42 -22 -89 -27 -46 -5 -77 -14 -95 -28 -19 -15 -52 -24
-120 -32 -68 -8 -99 -17 -115 -32 -17 -15 -45 -22 -120 -30 -74 -7 -103 -14
-120 -29 -17 -15 -46 -23 -120 -30 -76 -8 -103 -15 -120 -31 -18 -16 -41 -22
-117 -27 -74 -6 -100 -12 -116 -27 -17 -15 -50 -22 -153 -33 -99 -11 -137 -19
-158 -34 -22 -16 -53 -22 -148 -29 -98 -7 -126 -12 -150 -30 -25 -17 -50 -22
-150 -28 -95 -5 -124 -10 -140 -24 -23 -21 -57 -26 -253 -40 -114 -8 -149 -14
-170 -29 -23 -17 -55 -21 -214 -28 -148 -8 -191 -13 -205 -25 -26 -23 -58 -27
-356 -38 -246 -10 -271 -12 -310 -33 -42 -22 -42 -22 -897 -22 -855 0 -855 0
-897 22 -38 20 -66 24 -265 33 -272 12 -316 17 -347 41 -17 14 -41 19 -85 19
-129 1 -245 17 -272 39 -18 14 -42 21 -73 21 -89 1 -192 19 -217 39 -18 14
-49 21 -120 26 -77 6 -100 12 -122 30 -20 16 -47 24 -97 29 -49 5 -76 13 -91
27 -16 15 -49 24 -119 34 -68 9 -103 19 -118 33 -12 11 -39 22 -59 25 -20 3
-49 15 -65 26 -15 11 -57 25 -93 31 -38 7 -74 20 -86 31 -12 11 -48 25 -85 31
-40 7 -73 20 -89 34 -14 12 -44 25 -68 29 -24 4 -48 15 -55 25 -7 11 -32 23
-56 29 -24 5 -53 19 -65 30 -12 11 -37 24 -56 27 -19 4 -44 15 -55 24 -28 24
-60 40 -83 40 -11 0 -36 14 -57 30 -21 17 -46 30 -55 30 -9 0 -34 14 -55 30
-21 17 -48 30 -60 30 -12 0 -39 13 -59 29 -20 16 -50 32 -65 36 -16 3 -39 17
-51 31 -13 13 -29 24 -37 24 -7 0 -27 14 -45 30 -17 17 -39 30 -49 30 -10 0
-33 13 -51 29 -18 16 -48 32 -66 36 -18 4 -40 18 -48 31 -9 13 -23 24 -30 24
-13 0 -43 24 -112 91 -15 14 -39 29 -54 32 -15 4 -35 18 -44 32 -9 14 -22 25
-30 25 -7 0 -39 25 -71 56 -32 31 -73 63 -90 70 -18 8 -40 25 -49 39 -9 14
-24 25 -32 25 -9 0 -42 27 -74 60 -31 33 -59 60 -63 60 -5 0 -368 363 -519
520 -30 30 -56 64 -60 75 -3 11 -16 25 -28 30 -12 6 -26 25 -32 42 -6 18 -35
57 -64 87 -28 30 -52 59 -52 64 0 5 -12 17 -26 27 -14 9 -30 29 -35 43 -5 15
-19 32 -31 37 -13 6 -26 26 -32 47 -6 21 -21 45 -34 54 -12 8 -22 22 -22 29 0
8 -13 27 -29 41 -17 15 -33 39 -36 54 -3 15 -17 38 -31 50 -13 13 -24 29 -24
37 0 7 -13 24 -29 39 -16 14 -32 41 -35 59 -4 19 -17 40 -31 49 -14 9 -25 25
-25 36 0 11 -13 31 -29 46 -17 15 -32 41 -36 61 -4 20 -17 44 -29 54 -13 10
-26 33 -30 51 -3 18 -17 44 -30 58 -13 14 -29 43 -35 66 -6 22 -19 49 -30 58
-10 10 -22 34 -26 54 -4 20 -17 48 -30 62 -12 14 -26 41 -30 60 -4 19 -17 46
-30 60 -13 14 -26 41 -30 60 -4 19 -18 47 -30 62 -13 15 -26 46 -30 70 -5 25
-16 49 -30 60 -15 12 -24 32 -27 61 -3 28 -14 52 -30 68 -18 18 -27 40 -32 84
-5 42 -14 67 -30 85 -13 14 -26 44 -30 67 -3 24 -16 52 -29 66 -18 17 -25 39
-30 84 -5 46 -13 68 -30 85 -18 18 -25 40 -30 87 -5 45 -14 71 -30 91 -18 20
-26 45 -30 93 -5 50 -12 71 -30 89 -18 19 -25 39 -30 92 -5 52 -11 71 -28 85
-17 14 -23 34 -30 106 -7 67 -15 98 -33 125 -16 23 -26 56 -30 98 -4 46 -12
72 -29 92 -20 23 -25 43 -30 119 -5 77 -10 96 -30 120 -20 24 -25 43 -30 120
-5 77 -10 96 -30 120 -20 25 -25 43 -30 126 -5 82 -9 101 -28 121 -19 21 -24
40 -30 140 -7 99 -12 122 -32 153 -22 31 -25 51 -31 155 -5 105 -8 122 -28
143 -19 21 -23 39 -30 155 -6 116 -10 134 -30 155 -20 22 -23 37 -29 173 -8
168 -14 207 -37 233 -13 14 -18 54 -24 175 -7 140 -10 160 -30 187 -21 27 -23
46 -30 205 -8 203 -14 248 -36 273 -14 15 -18 56 -24 223 -7 189 -9 208 -33
258 -23 49 -25 64 -25 197 -1 220 -15 377 -37 401 -16 18 -19 49 -24 287 -8
318 -16 409 -38 435 -14 15 -17 63 -22 335 -9 411 -17 526 -40 571 -17 32 -19
62 -19 350 0 470 -17 876 -37 907 -15 22 -17 115 -24 881 -4 472 -10 909 -13
972 -4 63 -7 191 -7 284 -1 145 -4 175 -20 206 -18 35 -19 82 -16 1482 2 1325
3 1447 18 1464 21 24 29 109 38 412 6 206 8 233 25 251 22 24 34 125 36 281 0
63 5 103 15 120 30 53 36 75 41 179 5 82 10 112 26 134 22 32 38 115 38 201 0
48 5 67 26 97 21 30 27 53 31 119 5 67 10 87 30 110 18 21 25 46 30 95 4 49
12 74 29 94 17 20 25 47 30 95 5 50 13 76 30 96 16 18 26 47 30 86 5 41 14 65
30 81 12 12 25 41 29 65 4 24 16 52 26 64 22 23 39 75 39 117 0 16 10 38 24
52 13 13 27 42 31 63 3 22 17 50 30 62 13 12 27 40 30 61 4 22 17 52 30 67 12
15 26 42 30 60 3 18 17 45 29 60 13 15 26 41 30 57 4 17 18 41 31 55 13 14 28
44 35 68 6 23 20 48 30 55 11 6 20 17 20 24 0 7 13 27 29 45 16 18 32 47 35
64 4 17 18 42 31 54 13 12 27 35 30 50 3 15 19 39 36 54 16 14 29 34 29 44 0
10 14 29 30 44 17 14 30 35 30 47 0 11 14 30 30 43 17 12 30 29 30 37 0 9 11
27 25 41 51 52 87 100 94 127 4 15 17 32 29 38 12 5 25 19 28 30 4 11 31 45
60 75 29 30 93 98 141 150 170 182 496 500 514 500 6 0 22 14 36 30 13 17 31
30 38 30 7 0 46 27 85 60 39 33 75 60 80 60 4 0 10 9 13 20 3 11 19 25 35 31
17 6 37 21 46 33 8 13 28 26 44 29 16 3 43 20 60 36 17 17 37 31 45 31 8 0 22
11 31 25 9 14 30 27 50 30 19 4 47 20 62 36 15 16 35 29 44 29 10 0 34 14 55
30 21 17 43 30 50 30 6 0 22 11 35 25 13 14 38 27 56 31 18 3 47 19 64 35 16
16 41 29 55 29 13 0 40 14 58 30 19 17 44 30 55 30 11 0 34 12 52 26 17 14 49
30 72 36 22 5 54 20 70 33 16 14 40 25 53 25 13 0 37 12 54 26 17 14 49 28 71
31 26 4 44 13 54 29 12 17 29 24 71 29 36 5 70 17 98 36 26 18 55 29 77 29 24
0 40 7 55 25 16 20 32 26 84 32 45 4 71 13 91 29 19 16 49 27 95 33 46 7 75
17 91 32 16 15 41 23 88 28 47 5 72 13 89 29 18 17 42 24 111 31 67 7 96 14
119 32 23 17 50 24 103 29 55 4 79 11 96 27 19 17 43 23 137 31 91 8 120 15
143 32 24 17 50 23 134 29 87 6 108 11 127 30 22 19 38 22 173 28 91 3 159 11
175 19 14 7 118 102 230 212 112 109 294 283 404 388 344 326 458 441 451 453
-9 14 -298 13 -486 -3z"/>
</g>
</svg>
